<?xml version="1.0" encoding="UTF-8"?>
<svg width="475px" height="140px" viewBox="0 0 475 140" version="1.1" xmlns="http://www.w3.org/2000/svg" xmlns:xlink="http://www.w3.org/1999/xlink">
    <title>logo</title>
    <g id="页面-1" stroke="none" stroke-width="1" fill="none" fill-rule="evenodd">
        <g id="PC" transform="translate(-1043.000000, -370.000000)" fill-rule="nonzero">
            <g id="logo" transform="translate(1043.000000, 370.000000)">
                <path d="M70,0 C108.659932,0 140,31.3400675 140,70 C140,108.100654 109.560143,139.091699 71.6731659,139.980396 L115.120536,58.9274204 L115.28297,58.9274204 L128.440119,34.2916076 L128.259636,34.2916076 L128.440119,33.9577156 L99.6351682,34.0118603 L99.5629754,34.1652701 L54.0002578,33.9577156 L40.6084827,58.8822999 L86.4419234,58.8822999 L45.6619827,135.641356 C50.4603048,137.421924 55.4307432,138.665756 60.4825376,139.356629 C26.324247,134.714572 0,105.431465 0,70 C0,31.3400675 31.3400675,0 70,0 Z" id="形状结合" fill="#FE6D4F"></path>
                <polygon id="路径" fill="#FFFFFF" points="180.752868 33.9757638 156.117056 33.9757638 156.117056 85.142452 156.117056 108.686348 156.117056 109.778265 217.309527 109.778265 217.309527 85.142452 180.752868 85.142452"></polygon>
                <polygon id="路径" fill="#FFFFFF" points="371.387134 43.6405827 371.387134 34.2194147 346.742297 34.2194147 346.742297 108.929999 371.387134 108.929999 371.387134 97.0272012 381.106098 109.453397 409.017661 109.57071 380.591724 70.2887714 409.153023 33.9757638 379.120794 34.2194147"></polygon>
                <polygon id="路径" fill="#FFFFFF" points="474.613897 33.9757638 449.075674 33.9757638 442.199304 48.8926131 433.824932 33.9757638 409.153023 33.9757638 429.737012 74.710584 429.737012 109.110481 454.381849 109.110481 454.381849 75.134717"></polygon>
                <path d="M219.754894,85.142452 L219.754894,85.142452 C219.731074,91.6664002 222.305286,97.9314995 226.909123,102.553962 C231.512961,107.176424 237.767616,109.77591 244.291608,109.778265 L256.203429,109.778265 C269.810873,109.778265 280.843283,98.7498953 280.848266,85.142452 L280.848266,85.142452 C280.848266,84.9890422 280.848266,84.8356323 280.848266,84.6822225 L280.848266,33.9757638 L256.203429,33.9757638 L256.203429,85.142452 L244.616475,85.142452 L244.291608,33.9757638 L219.754894,33.9757638" id="路径" fill="#FFFFFF"></path>
                <path d="M322.675003,44.3264149 L331.022302,61.2285677 L344.296764,63.1687508 L344.387005,42.4133041 C337.752781,36.905921 329.383914,33.9234331 320.761892,33.993812 C300.123659,33.993812 283.393064,50.7244063 283.393064,71.3626402 C283.393064,92.0008741 300.123659,108.731715 320.761892,108.731715 C329.343789,108.763124 337.658312,105.74751 344.224571,100.221735 L339.333505,95.7096816 L322.675003,86.9021529 L305.998453,95.6555369 L309.183963,77.0839242 L295.692923,63.9357999 L314.336728,61.2285677 L322.675003,44.3264149 Z" id="路径" fill="#FFFFFF"></path>
            </g>
        </g>
    </g>
</svg>