<?xml version="1.0" encoding="UTF-8"?>
<svg width="54px" height="54px" viewBox="0 0 54 54" version="1.1" xmlns="http://www.w3.org/2000/svg" xmlns:xlink="http://www.w3.org/1999/xlink">
    <title>WhatsApp</title>
    <defs>
        <linearGradient x1="50%" y1="0%" x2="50%" y2="100%" id="linearGradient-1">
            <stop stop-color="#FFA640" offset="0%"></stop>
            <stop stop-color="#FF6304" offset="100%"></stop>
        </linearGradient>
    </defs>
    <g id="页面-1" stroke="none" stroke-width="1" fill="none" fill-rule="evenodd">
        <g id="PC" transform="translate(-586.000000, -5405.000000)" fill="url(#linearGradient-1)" fill-rule="nonzero">
            <path d="M612.993279,5405 L613.006779,5405 C627.895013,5405 640,5417.11174 640,5431.99997 C640,5446.88821 627.892763,5458.99994 613.006779,5458.99994 C607.516785,5458.99994 602.42279,5457.36419 598.156795,5454.54045 L587.777556,5457.85694 L591.141302,5447.8242 C587.792229,5443.22844 585.991691,5437.68656 586.000029,5431.99997 C586.000029,5417.11174 598.107295,5405 612.993279,5405 Z M605.269037,5419.84098 C604.753788,5418.61024 604.362288,5418.56299 603.581539,5418.53149 C603.284915,5418.51219 602.987785,5418.50169 602.69054,5418.49999 C601.673541,5418.49999 600.611542,5418.79699 599.968043,5419.45173 C599.191794,5420.24598 597.250046,5422.09998 597.250046,5425.90923 C597.250046,5429.71397 600.033293,5433.39497 600.406792,5433.91022 C600.798292,5434.42322 605.833787,5442.34771 613.648028,5445.57646 C619.761272,5448.1032 621.57477,5447.8692 622.967518,5447.5722 C624.999266,5447.1357 627.546263,5445.63721 628.187513,5443.83046 C628.828762,5442.01921 628.828762,5440.47571 628.642012,5440.14721 C628.453012,5439.82096 627.937763,5439.63421 627.157014,5439.24271 C626.374015,5438.85346 622.576019,5436.98147 621.856019,5436.73172 C621.15177,5436.46847 620.481271,5436.56072 619.950271,5437.30997 C619.198772,5438.35396 618.465273,5439.41596 617.869024,5440.05496 C617.401024,5440.55446 616.633775,5440.61746 615.994776,5440.35196 C615.135277,5439.99196 612.727779,5439.15046 609.755532,5436.51347 C607.458285,5434.47047 605.894537,5431.92797 605.442287,5431.16522 C604.987787,5430.38447 605.395037,5429.93222 605.755037,5429.51147 C606.144286,5429.02772 606.520036,5428.68572 606.911535,5428.23348 C607.303035,5427.78123 607.519035,5427.54723 607.771034,5427.01623 C608.036534,5426.50098 607.849784,5425.96998 607.660785,5425.58073 C607.474035,5425.19148 605.910287,5421.38448 605.269037,5419.84323 L605.269037,5419.84098 Z" id="WhatsApp"></path>
        </g>
    </g>
</svg>