<?xml version="1.0" encoding="UTF-8"?>
<svg width="54px" height="55px" viewBox="0 0 54 55" version="1.1" xmlns="http://www.w3.org/2000/svg" xmlns:xlink="http://www.w3.org/1999/xlink">
    <title>橙</title>
    <defs>
        <linearGradient x1="50%" y1="0%" x2="50%" y2="100%" id="linearGradient-1">
            <stop stop-color="#FFA640" offset="0%"></stop>
            <stop stop-color="#FF6304" offset="100%"></stop>
        </linearGradient>
    </defs>
    <g id="页面-1" stroke="none" stroke-width="1" fill="none" fill-rule="evenodd">
        <path d="M26.8644585,0.00320692222 C30.1726952,-0.0480464922 33.4616878,0.515452237 36.5641847,1.66504813 C40.1573856,3.0264478 43.409891,5.15620226 46.0943352,7.90543146 C51.2537769,12.9187429 54.1133159,19.8405456 53.9965597,27.0335628 C54.0725732,34.2358887 51.1627853,41.1481697 45.9586747,46.1277791 C40.955803,51.2819812 34.0465273,54.141415 26.8644585,54.0300036 C19.7293096,54.1039766 12.8762351,51.2475073 7.90590273,46.1277791 C2.74828092,41.1272293 -0.111793643,34.2164054 0.00367824464,27.0335628 C-0.117140934,19.8397742 2.74303836,12.9164218 7.90590273,7.90543146 C10.5966359,5.14778715 13.8621214,3.01711573 17.4699684,1.66504813 C20.4762497,0.551403088 23.6585709,-0.0115346129 26.8644585,0.00320692222 Z M14.0784558,16.7572795 C13.1494698,16.6467829 12.2211165,16.9684076 11.5595939,17.6299302 C10.8980712,18.2914529 10.5764465,19.2198061 10.6869431,20.1487921 L10.6869431,20.1487921 L10.6869431,33.9183335 C10.5764465,34.8473195 10.8980712,35.7756727 11.5595939,36.4371954 C12.2211165,37.0987181 13.1494698,37.4203427 14.0784558,37.3098461 L14.0784558,37.3098461 L39.9556973,37.3098461 C40.8508798,37.3553636 41.7208244,37.0051132 42.3347359,36.3520158 C42.9486475,35.6989185 43.2444689,34.8089923 43.1437192,33.9183335 L43.1437192,33.9183335 L43.1437192,20.1487921 C43.2444689,19.2581334 42.9486475,18.3682072 42.3347359,17.7151098 C41.7208244,17.0620124 40.8508798,16.711762 39.9556973,16.7572795 L39.9556973,16.7572795 Z M13.2984079,20.6914342 L25.9826652,29.7806881 C26.1752626,29.9013257 26.4000218,29.9604729 26.6270526,29.9502637 C26.8524173,29.9467987 27.073562,29.8886027 27.27144,29.7806881 L27.27144,29.7806881 L41.0748965,20.7931795 L41.0748965,33.9183335 C41.0748965,35.105363 40.6000848,35.105363 40.125273,35.105363 L14.1722777,35.1052146 C13.6963171,35.1023954 13.2984079,35.0460115 13.2984079,33.9183335 L13.2984079,33.9183335 L13.2984079,20.6914342 Z M39.582631,18.9278476 L26.6609677,27.5762048 L14.5532676,18.9278476 L39.582631,18.9278476 Z" id="橙" fill="url(#linearGradient-1)" fill-rule="nonzero"></path>
    </g>
</svg>