<?xml version="1.0" encoding="UTF-8"?>
<svg width="54px" height="54px" viewBox="0 0 54 54" version="1.1" xmlns="http://www.w3.org/2000/svg" xmlns:xlink="http://www.w3.org/1999/xlink">
    <title>Skype</title>
    <defs>
        <linearGradient x1="50%" y1="0%" x2="50%" y2="100%" id="linearGradient-1">
            <stop stop-color="#FFA640" offset="0%"></stop>
            <stop stop-color="#FF6304" offset="100%"></stop>
        </linearGradient>
    </defs>
    <g id="页面-1" stroke="none" stroke-width="1" fill="none" fill-rule="evenodd">
        <g id="PC" transform="translate(-586.000000, -5569.000000)" fill="url(#linearGradient-1)" fill-rule="nonzero">
            <g id="Skype" transform="translate(586.000000, 5569.000000)">
                <path d="M27.0833061,42.4663974 C18.031578,42.4663974 13.9883378,38.0136582 13.9883378,34.6724162 C13.9883378,32.9511704 15.2505847,31.7564232 16.9875806,31.7564232 C20.8643212,31.7564232 19.8518237,37.3296598 27.0833061,37.3296598 C30.7755472,37.3296598 32.8207923,35.3159147 32.8207923,33.2549196 C32.8207923,32.0151726 32.2155438,30.6449259 29.7742996,30.0396774 L21.7283191,28.0259323 C15.2483347,26.3969362 14.0715876,22.8824447 14.0715876,19.5862027 C14.0715876,12.7304692 20.508822,10.1564754 26.5568074,10.1564754 C32.116544,10.1564754 38.6910281,13.245718 38.6910281,17.3542081 C38.6910281,19.1182038 37.1430318,20.1442013 35.421786,20.1442013 C32.116544,20.1442013 32.7262925,15.5609624 26.0528087,15.5609624 C22.7475667,15.5609624 20.8958211,17.0549588 20.8958211,19.1992036 C20.8958211,21.3434484 23.4900649,22.0296968 25.7490594,22.5449455 L31.6822951,23.8656923 C38.1870293,25.3259388 39.8362753,29.1441796 39.8362753,32.7396709 C39.8362753,38.3106575 35.5567857,42.4686474 26.9618064,42.4686474 M51.9007462,31.4841739 L51.8354963,31.7879232 L51.7364966,31.2479245 C51.7702465,31.3491743 51.8354963,31.4144241 51.8692463,31.5179239 C52.1392456,29.9991775 52.2764953,28.4511813 52.2764953,26.900935 C52.2777587,20.1338264 49.5859738,13.6443985 44.7952633,8.8649786 C42.470287,6.54812349 39.7250725,4.69558094 36.7065329,3.40649175 C33.74104,1.98674516 30.4042981,1.31399681 26.9685564,1.31399681 C25.3485603,1.31399681 23.7195643,1.47149644 22.1468181,1.7729957 L22.4145674,1.90799537 L21.8768187,1.83374555 L22.1445681,1.77749572 C19.9693984,0.612378465 17.5403963,0.00184339945 15.0728352,0 C11.0475949,0 7.26535403,1.57049619 4.41686092,4.42573929 C1.57873852,7.25606614 -0.0113001318,11.102777 6.04612326e-05,15.1109635 C6.04612326e-05,17.6827073 0.657120002,20.2072012 1.899117,22.4414458 L1.94411687,22.1624465 L2.03636669,22.7001951 L1.90136701,22.4414458 C1.05462031,27.2745972 1.61056083,32.2491718 3.50336311,36.7761612 C4.76121803,39.8214086 6.61822721,42.5828202 8.96409991,44.8963915 C11.280383,47.2328608 14.0271849,49.0986996 17.0528304,50.3908783 C20.1893228,51.740875 23.5260647,52.4113734 26.9618064,52.4113733 C28.4445528,52.4113733 29.9632992,52.2763737 31.4100457,52.0086243 L31.1422964,51.8691247 L31.6822951,51.9726244 L31.3785458,52.0401242 C33.6366124,53.3266957 36.1911578,54.002169 38.7900279,53.9999351 C42.7877271,54.0117081 46.623408,52.4208689 49.4392521,49.5831302 C52.2759137,46.7520082 53.865009,42.9056202 53.853801,38.897906 C53.8445193,36.3256791 53.1842597,33.7976513 51.9344961,31.5494238" id="形状"></path>
            </g>
        </g>
    </g>
</svg>