<?xml version="1.0" encoding="UTF-8"?>
<svg width="54px" height="54px" viewBox="0 0 54 54" version="1.1" xmlns="http://www.w3.org/2000/svg" xmlns:xlink="http://www.w3.org/1999/xlink">
    <title>telegram (1)</title>
    <defs>
        <linearGradient x1="50%" y1="0%" x2="50%" y2="100%" id="linearGradient-1">
            <stop stop-color="#FFA640" offset="0%"></stop>
            <stop stop-color="#FF6304" offset="100%"></stop>
        </linearGradient>
    </defs>
    <g id="页面-1" stroke="none" stroke-width="1" fill="none" fill-rule="evenodd">
        <g id="PC" transform="translate(-586.000000, -5247.000000)" fill="url(#linearGradient-1)" fill-rule="nonzero">
            <g id="telegram-(1)" transform="translate(586.000000, 5247.000000)">
                <path d="M35.829,39.3852857 L40.2589285,18.5027143 C40.6504285,16.6647858 39.5955,15.9415715 38.3901428,16.3928572 L12.3544285,26.4272143 C10.5762857,27.1195715 10.6071428,28.1147143 12.0535715,28.566 L18.7129285,30.645 L34.1723572,20.9115 C34.8955715,20.4293572 35.559,20.7012857 35.0170715,21.1834285 L22.5122143,32.4829285 L22.0300715,39.3544285 C22.7224286,39.3544285 23.0252143,39.0535714 23.3858572,38.691 L26.6393572,35.5570715 L33.3893572,40.5289285 C34.6255715,41.2212857 35.4992143,40.8606428 35.8309285,39.3833572 L35.829,39.3852857 Z M54,27 C54,41.9155715 41.9155715,54 27,54 C12.0844285,54 0,41.9155715 0,27 C0,12.0844285 12.0844285,0 27,0 C41.9155715,0 54,12.0844285 54,27 Z" id="形状"></path>
            </g>
        </g>
    </g>
</svg>