<?xml version="1.0" encoding="UTF-8"?>
<svg width="44px" height="39px" viewBox="0 0 44 39" version="1.1" xmlns="http://www.w3.org/2000/svg" xmlns:xlink="http://www.w3.org/1999/xlink">
    <title>稳定</title>
    <g id="页面-1" stroke="none" stroke-width="1" fill="none" fill-rule="evenodd">
        <g id="PC" transform="translate(-1360.000000, -1535.000000)" fill-rule="nonzero">
            <g id="稳定" transform="translate(1360.000000, 1535.000000)">
                <path d="M34.032999,31.362069 L9.96700096,31.362069 L10.064595,31.9446746 C10.1020064,32.1680085 10.1207693,32.3940681 10.1206897,32.6205138 C10.1206897,33.341976 9.93185392,34.0354649 9.57866976,34.6462658 L9.14483094,35.3965517 L34.8560199,35.3965517 L34.4211175,34.6458983 C34.0679246,34.0362776 33.8793103,33.3429694 33.8793103,32.6206897 C33.8792307,32.3940681 33.8979936,32.1680085 33.935405,31.9446746 L34.032999,31.362069 Z M38.1383029,28.5031273 L25.7806537,7.72179677 L25.3380213,8.36474949 C24.8102022,9.1314416 24.0349701,9.69349082 23.1421664,9.95676123 L22.5249694,10.1387606 L34.5270238,30.3261518 L34.9817927,29.8420732 C35.6178679,29.1650031 36.4677978,28.7277601 37.3884973,28.6039536 L38.1383029,28.5031273 Z M18.6619575,8.36471873 L18.2192995,7.72183155 L5.86247923,28.5031305 L6.61226132,28.6039536 C7.53296084,28.7277601 8.3828907,29.1650031 9.01896593,29.8420732 L9.47373478,30.3261518 L21.475863,10.1386363 L20.8584879,9.95673047 C19.9654359,9.69359806 19.1899468,9.13153542 18.6619575,8.36471873 Z" id="形状结合" fill="#323333"></path>
                <path d="M37.9310345,26.5517241 C41.2828316,26.5517241 44,29.2688925 44,32.6206896 C44,35.9724867 41.2828316,38.6896551 37.9310345,38.6896551 C34.5792374,38.6896551 31.862069,35.9724867 31.862069,32.6206896 C31.862069,29.2688925 34.5792374,26.5517241 37.9310345,26.5517241 Z M37.9310345,29.5517241 C36.2360916,29.5517241 34.862069,30.9257468 34.862069,32.6206896 C34.862069,34.3156325 36.2360916,35.6896551 37.9310345,35.6896551 C39.6259773,35.6896551 41,34.3156325 41,32.6206896 C41,30.9257468 39.6259773,29.5517241 37.9310345,29.5517241 Z" id="路径" fill="#FF5600"></path>
                <path d="M6.0689655,26.5517241 C9.42076259,26.5517241 12.137931,29.2688925 12.137931,32.6206896 C12.137931,35.9724867 9.42076259,38.6896551 6.0689655,38.6896551 C2.71716841,38.6896551 0,35.9724867 0,32.6206896 C0,29.2688925 2.71716841,26.5517241 6.0689655,26.5517241 Z M6.0689655,29.5517241 C4.37402266,29.5517241 3,30.9257468 3,32.6206896 C3,34.3156325 4.37402266,35.6896551 6.0689655,35.6896551 C7.76390834,35.6896551 9.137931,34.3156325 9.137931,32.6206896 C9.137931,30.9257468 7.76390834,29.5517241 6.0689655,29.5517241 Z" id="路径" fill="#FF5600"></path>
                <path d="M22,0 C25.3517971,0 28.0689655,2.71716841 28.0689655,6.0689655 C28.0689655,9.42076259 25.3517971,12.137931 22,12.137931 C18.6482029,12.137931 15.9310345,9.42076259 15.9310345,6.0689655 C15.9310345,2.71716841 18.6482029,0 22,0 Z M22,3 C20.3050571,3 18.9310345,4.37402266 18.9310345,6.0689655 C18.9310345,7.76390834 20.3050571,9.137931 22,9.137931 C23.6949428,9.137931 25.0689655,7.76390834 25.0689655,6.0689655 C25.0689655,4.37402266 23.6949428,3 22,3 Z" id="路径" fill="#FF5600"></path>
            </g>
        </g>
    </g>
</svg>