<?xml version="1.0" encoding="UTF-8"?>
<svg width="54px" height="54px" viewBox="0 0 54 54" version="1.1" xmlns="http://www.w3.org/2000/svg" xmlns:xlink="http://www.w3.org/1999/xlink">
    <title>WhatsApp</title>
    <g id="页面-1" stroke="none" stroke-width="1" fill="none" fill-rule="evenodd">
        <path d="M26.9932789,0 L27.0067789,0 C41.895013,0 54,12.111737 54,26.9999711 C54,41.8882051 41.892763,53.9999421 27.0067789,53.9999421 C21.5167848,53.9999421 16.4227903,52.3641939 12.1567948,49.5404469 L1.77755592,52.8569433 L5.14130233,42.8242041 C1.79222918,38.2284365 -0.00830919454,32.6865606 2.88288033e-05,26.9999711 C2.88288033e-05,12.111737 12.1072949,0 26.9932789,0 Z M19.2690372,14.8409841 C18.7537877,13.6102354 18.3622881,13.5629854 17.581539,13.5314855 C17.2849154,13.5121929 16.9877855,13.5016883 16.69054,13.4999855 C15.6735411,13.4999855 14.6115422,13.7969852 13.9680429,14.4517345 C13.1917937,15.2459836 11.2500458,17.0999817 11.2500458,20.9092276 C11.2500458,24.7139735 14.0332928,28.3949696 14.4067924,28.910219 C14.798292,29.4232185 19.8337866,37.34771 27.6480282,40.5764565 C33.7612717,43.1032039 35.5747698,42.8692041 36.9675182,42.5722044 C38.9992661,42.1357049 41.5462633,40.6372065 42.1875127,38.8304584 C42.828762,37.0192103 42.828762,35.475712 42.6420121,35.1472123 C42.4530123,34.8209627 41.9377629,34.6342129 41.1570137,34.2427133 C40.3740146,33.8534637 36.5760187,31.9814657 35.8560194,31.731716 C35.1517702,31.4684663 34.4812709,31.5607162 33.9502715,32.3099654 C33.1987723,33.3539642 32.4652731,34.4159631 31.8690237,35.0549625 C31.4010242,35.5544619 30.633775,35.6174619 29.9947757,35.3519621 C29.1352766,34.9919625 26.7277792,34.1504634 23.7555324,31.5134662 C21.4582848,29.4704684 19.8945365,26.9279711 19.442287,26.165222 C18.9877875,25.3844728 19.395037,24.9322233 19.7550367,24.5114738 C20.1442862,24.0277243 20.5200359,23.6857246 20.9115355,23.2334751 C21.303035,22.7812256 21.5190348,22.5472259 21.7710345,22.0162264 C22.0365342,21.5009769 21.8497844,20.9699775 21.6607846,20.5807279 C21.4740349,20.1914784 19.9102865,16.3844825 19.2690372,14.8432341 L19.2690372,14.8409841 Z" id="WhatsApp" fill="#00CB61" fill-rule="nonzero"></path>
    </g>
</svg>