<?xml version="1.0" encoding="UTF-8"?>
<svg width="40px" height="41px" viewBox="0 0 40 41" version="1.1" xmlns="http://www.w3.org/2000/svg" xmlns:xlink="http://www.w3.org/1999/xlink">
    <title>极速</title>
    <g id="页面-1" stroke="none" stroke-width="1" fill="none" fill-rule="evenodd">
        <g id="极速" transform="translate(0.000000, 0.742287)" fill-rule="nonzero">
            <path d="M22.7168488,19.6337046 C22.7189348,19.5917012 22.720001,19.5494148 22.720001,19.50694 C22.720001,18.6455157 22.2866169,17.8876621 21.6302594,17.4450466 L21.2890778,9.58266992 C21.2710452,9.22146852 20.9808091,8.57142857 20.2826383,8.57142857 C19.5829842,8.57142857 19.2974764,9.22146852 19.2761989,9.58266992 L18.8782309,17.4935085 C18.2605345,17.9417339 17.8571429,18.6760636 17.8571429,19.50694 C17.8571429,20.8715572 18.9466526,21.9795337 20.2885256,21.9795337 C20.3901384,21.9795337 20.4902214,21.9724624 20.5886356,21.9600641 L25.2692211,26.1779932 C25.5366501,26.4192184 26.2211457,26.6388998 26.7862742,26.0657954 C27.351588,25.4908997 27.1309325,24.7963578 26.8981317,24.5228404 L22.7168488,19.6335632 L22.7168488,19.6337046 Z" id="路径" fill="#00CB61"></path>
            <path d="M35.0550172,19.2857143 L34.230697,19.2857143 C33.8666153,19.2857143 33.5714286,19.6054159 33.5714286,19.9999732 C33.5714286,20.3945306 33.8666153,20.7142857 34.230697,20.7142857 L35.0550172,20.7142857 C35.419099,20.7142857 35.7142857,20.3944771 35.7142857,19.9999732 C35.7142857,19.6055229 35.419099,19.2857143 35.0550172,19.2857143 L35.0550172,19.2857143 Z" id="路径" fill="#323333"></path>
            <path d="M5.76928776,19.2857143 L4.94499796,19.2857143 C4.58085843,19.2857143 4.28571429,19.6054159 4.28571429,19.9999732 C4.28571429,20.3945306 4.58080905,20.7142857 4.94499796,20.7142857 L5.76928776,20.7142857 C6.13342728,20.7142857 6.42857143,20.3944771 6.42857143,19.9999732 C6.42857143,19.6055229 6.13347667,19.2857143 5.76928776,19.2857143 L5.76928776,19.2857143 Z" id="路径" fill="#323333"></path>
            <path d="M20,32.8571429 C19.6055349,32.8571429 19.2857143,33.1523296 19.2857143,33.5164113 L19.2857143,34.3407315 C19.2857143,34.7048133 19.6055349,35 20,35 C20.3944651,35 20.7142857,34.7048133 20.7142857,34.3407315 L20.7142857,33.5164113 C20.7142857,33.1522802 20.3944651,32.8571429 20,32.8571429 Z" id="路径" fill="#323333"></path>
            <path d="M20,6.42857143 C20.3944651,6.42857143 20.7142857,6.13347667 20.7142857,5.76928776 L20.7142857,4.94499796 C20.7142857,4.58085843 20.3944651,4.28571429 20,4.28571429 C19.6055349,4.28571429 19.2857143,4.58080905 19.2857143,4.94499796 L19.2857143,5.76928776 C19.2857143,6.13342728 19.6055349,6.42857143 20,6.42857143 Z" id="路径" fill="#323333"></path>
            <path d="M20,0 C8.9542635,0 0,8.95421673 0,20 C0,31.0457833 8.95421673,40 20,40 C31.0457365,40 40,31.0457833 40,20 C40,8.95421673 31.0457833,0 20,0 L20,0 Z M20,36.0974914 C11.1235501,36.0974914 3.9025086,28.8764499 3.9025086,20 C3.9025086,11.1235501 11.1235501,3.9025086 20,3.9025086 C28.8764499,3.9025086 36.0974914,11.1235501 36.0974914,20 C36.0974914,28.8764499 28.8764499,36.0974914 20,36.0974914 Z" id="形状" fill="#323333"></path>
        </g>
    </g>
</svg>