<?xml version="1.0" encoding="UTF-8"?>
<svg width="43px" height="36px" viewBox="0 0 43 36" version="1.1" xmlns="http://www.w3.org/2000/svg" xmlns:xlink="http://www.w3.org/1999/xlink">
    <title>编组 10</title>
    <g id="页面-1" stroke="none" stroke-width="1" fill="none" fill-rule="evenodd">
        <g id="编组-10" transform="translate(0.387418, 0.689655)" fill-rule="nonzero">
            <path d="M37.6087235,3.09489168 L37.8401498,3.31990257 L39.2801177,4.75987045 C43.6303083,9.11089202 43.7053116,16.1178157 39.5051083,20.5604394 L39.2800974,20.7918657 L27.9066032,32.1653599 C26.1553484,33.9185026 23.7777585,34.9016544 21.3008148,34.8973546 C18.9305652,34.9014669 16.6521734,34.0021274 14.9260152,32.3897462 L14.6940962,32.1654742 L3.32049453,20.7918726 C1.19442502,18.6659412 0,15.7824766 0,12.7758579 C0,9.88487846 1.10431308,7.10776182 3.07932216,5.00847494 L3.32048764,4.75985019 L4.76045552,3.31988231 C9.11147709,-1.0303083 16.1184008,-1.10531159 20.5610052,3.09487245 L20.7924305,3.31988231 L21.3,3.827 L21.8081546,3.31988231 C26.1591761,-1.0303083 33.1660998,-1.10531159 37.6087235,3.09489168 Z M12.7819579,3.61594083 L12.4847631,3.62180513 C10.6477128,3.68796676 8.89749525,4.40940028 7.54886214,5.65078176 L7.31495539,5.87536446 L5.87549461,7.31482523 C2.93002901,10.2607342 2.86599715,15.0138966 5.68335119,18.039607 L5.87544351,18.2387231 L17.2504998,29.6100123 C19.4237641,31.7832766 22.9240996,31.8421446 25.1688008,29.7862457 L25.3528974,29.6100255 L36.7246355,18.2368747 C39.6700855,15.2914247 39.734117,10.5382723 36.9168927,7.51226731 L36.7248092,7.31313118 L35.2847039,5.87538042 C32.3387949,2.92991482 27.5856325,2.86588296 24.5599383,5.68322081 L24.3608233,5.87531203 L18.7154274,11.5230623 C18.0098991,12.2287466 16.8658853,12.228873 16.160201,11.5233446 C15.4937214,10.8570123 15.456582,9.79956176 16.0488842,9.08962076 L16.1599421,8.96809476 L18.744,6.383 L18.2387269,5.87521892 C16.9384282,4.57313534 15.2180301,3.78303949 13.3963918,3.6403698 L13.0739402,3.62194104 L12.7819579,3.61594083 Z" id="形状结合" fill="#323333"></path>
            <path d="M21.2706272,23.4898008 C18.7764157,23.4966521 16.3831094,22.505418 14.6241717,20.7370072 C14.0800959,20.1841281 14.0836074,19.295963 14.6320379,18.7474032 C15.1804684,18.1988434 16.0686326,18.1951226 16.62164,18.7390681 C19.1851046,21.3025327 23.355208,21.3025327 25.9191435,18.7390681 C26.2731646,18.3684995 26.8001197,18.2187363 27.2961176,18.3477254 C27.7921154,18.4767146 28.1793482,18.8642213 28.3079864,19.3603103 C28.4366247,19.8563993 28.2864889,20.3832482 27.91567,20.7370072 C26.1570175,22.5049804 23.7643286,23.4961695 21.2706272,23.4898008 Z" id="路径" fill="#00CB61"></path>
        </g>
    </g>
</svg>