<?xml version="1.0" encoding="UTF-8"?>
<svg width="24px" height="24px" viewBox="0 0 24 24" version="1.1" xmlns="http://www.w3.org/2000/svg" xmlns:xlink="http://www.w3.org/1999/xlink">
    <title>足球 (1)</title>
    <g id="页面-1" stroke="none" stroke-width="1" fill="none" fill-rule="evenodd">
        <g id="PC" transform="translate(-1058.000000, -2409.000000)" fill="#FFFFFF" fill-rule="nonzero">
            <g id="足球-(1)" transform="translate(1058.000000, 2409.000000)">
                <path d="M12,0 C18.62745,0 24,5.372625 24,12 C24,18.62745 18.62745,24 12,24 C5.372625,24 0,18.62745 0,12 C0,5.372625 5.372625,0 12,0 Z M14.061,17.624 L10.086,17.624 L7.73092759,20.764834 C9.02093947,21.3957026 10.4698741,21.75 12,21.75 C13.5730614,21.75 15.0603006,21.3755508 16.3772667,20.7111035 L14.061,17.624 Z M2.25,12 C2.25,15.0384945 3.64709498,17.7567865 5.83262787,19.5462595 L7.80376198,16.9183627 C7.79429248,16.8946926 7.78557735,16.8705802 7.77765,16.84605 L6.145,11.798 L2.37592493,10.4323734 C2.29307329,10.9428484 2.25,11.4664889 2.25,12 Z M21.6171753,10.3904429 L17.855,11.794 L16.243,16.782 L18.2582467,19.4709629 C20.3915679,17.6810172 21.75,14.9961819 21.75,12 C21.75,11.451871 21.704534,10.9141609 21.6171753,10.3904429 Z M12,8.142975 L8.220825,10.9026 L9.666675,15.375 L14.333325,15.375 L15.7791,10.90275 L12,8.142975 Z M2.99456597,8.26289159 L6.353,9.48 L10.874,6.178 L10.8743327,2.31458192 C7.31049534,2.72610873 4.32571081,5.06707422 2.99456597,8.26289159 Z M13.1246662,2.31446637 L13.124,6.178 L17.638,9.473 L20.9886943,8.22295435 C19.6492587,5.04728446 16.6740832,2.72395569 13.1246662,2.31446637 Z" id="形状结合"></path>
            </g>
        </g>
    </g>
</svg>