<?xml version="1.0" encoding="UTF-8"?>
<svg width="32px" height="45px" viewBox="0 0 32 45" version="1.1" xmlns="http://www.w3.org/2000/svg" xmlns:xlink="http://www.w3.org/1999/xlink">
    <title>主播</title>
    <g id="页面-1" stroke="none" stroke-width="1" fill="none" fill-rule="evenodd">
        <g id="主播" transform="translate(0.259044, 0.047619)" fill-rule="nonzero">
            <path d="M15.7409558,0 C20.7570344,0 24.8249218,4.06788745 24.8249218,9.08396606 L24.8249218,19.1750782 C24.8249218,24.1911568 20.7619473,28.2590442 15.7458687,28.2590442 C10.7297901,28.2590442 6.66189819,24.1960697 6.66189819,19.1799911 L6.66189819,9.08396606 C6.65698973,4.06788745 10.7248772,0 15.7409558,0 Z M15.7409558,3.22778026 C12.5082626,3.22778026 9.88968289,5.84635998 9.88968289,9.07905315 L9.88968289,19.1701653 C9.88968289,22.4028584 12.5082626,25.026351 15.7409558,25.026351 C18.973649,25.026351 21.5971416,22.4077713 21.5971416,19.1750782 L21.5971416,9.08396606 C21.5922287,5.85127289 18.973649,3.22778026 15.7409558,3.22778026 Z" id="形状" fill="#00CB61"></path>
            <path d="M0,20.1822242 C0,28.8780706 7.05002233,35.92318 15.7409558,35.92318 C24.4318892,35.92318 31.4819116,28.8780706 31.4819116,20.1822242 C31.4819116,19.288075 30.7597142,18.5658776 29.8704779,18.5658776 C28.9763287,18.5658776 28.2541313,19.288075 28.2541313,20.1773113 C28.2541313,27.0897722 22.6534167,32.6904868 15.7409558,32.6904868 C8.82849486,32.6904868 3.22778026,27.0946851 3.22778026,20.1822242 C3.22778026,19.288075 2.50558285,18.5658776 1.61143368,18.5658776 C0.72219741,18.5707905 0,19.2929879 0,20.1822242 Z" id="路径" fill="#323333"></path>
            <path d="M14.1246092,34.3117463 L14.1246092,40.8164359 C14.1246092,41.7105851 14.8468066,42.4327825 15.7409558,42.4327825 C16.635105,42.4327825 17.3573024,41.7105851 17.3573024,40.8164359 L17.3573024,34.3117463 C17.3573024,33.4175971 16.635105,32.6953997 15.7458687,32.6953997 C14.8517195,32.6953997 14.1246092,33.4175971 14.1246092,34.3117463 Z" id="路径" fill="#323333"></path>
            <path d="M10.6953997,44 L20.8995087,44 C21.7936579,44 22.5158553,43.2778026 22.5158553,42.3885663 C22.5158553,41.4944172 21.7936579,40.7722197 20.9044216,40.7722197 L10.6953997,40.7722197 C9.80125056,40.7722197 9.07905315,41.4944172 9.07905315,42.3836534 C9.07905315,43.2778026 9.80125056,44 10.6953997,44 Z" id="路径" fill="#323333"></path>
        </g>
    </g>
</svg>