<?xml version="1.0" encoding="UTF-8"?>
<svg width="31px" height="22px" viewBox="0 0 31 22" version="1.1" xmlns="http://www.w3.org/2000/svg" xmlns:xlink="http://www.w3.org/1999/xlink">
    <title>直播</title>
    <g id="页面-1" stroke="none" stroke-width="1" fill="none" fill-rule="evenodd">
        <g id="PC" transform="translate(-1226.000000, -2410.000000)" fill="#FFFFFF" fill-rule="nonzero">
            <g id="直播" transform="translate(1226.000000, 2410.000000)">
                <path d="M22.7586207,5.74844827 L26.5062069,3.88299998 C27.3292458,3.47320294 28.3057122,3.51835951 29.0874171,4.00236774 C29.8691221,4.48637597 30.3448276,5.34034218 30.3448276,6.25975863 L30.3448276,15.8676896 C30.3448276,16.7959485 29.8599053,17.6567708 29.0661207,18.1379886 C28.2723362,18.6192064 27.2848744,18.6509431 26.4618276,18.2216897 L22.7586207,16.2906207 L22.7586207,17.8275862 C22.7586207,20.1318966 20.8905173,22 18.5862069,22 L4.17241382,22 C1.86810347,22 0,20.1318966 0,17.8275862 L0,4.17241379 C0,1.86810344 1.86810344,0 4.17241382,0 L18.5862069,0 C20.8905173,0 22.7586207,1.86810344 22.7586207,4.17241379 L22.7586207,5.74844827 Z M22.7586207,8.29096553 L22.7586207,13.7234483 L27.5144138,16.2033793 C27.631945,16.2646046 27.772908,16.260051 27.8862427,16.191368 C27.9995774,16.122685 28.068849,15.9998324 28.0689656,15.8673104 L28.0689656,6.25975863 C28.0689656,6.12839192 28.0009854,6.00638 27.8892839,5.9372425 C27.7775825,5.86810501 27.6380603,5.86168631 27.5204828,5.92027586 L22.7586207,8.29096553 Z M20.4827586,17.8275862 L20.4827586,4.17241379 C20.4827586,3.1249772 19.6336435,2.27586207 18.5862069,2.27586207 L4.17241382,2.27586207 C3.66941703,2.27586207 3.18702167,2.47567675 2.83134922,2.8313492 C2.47567677,3.18702164 2.27586207,3.66941699 2.27586207,4.17241379 L2.27586207,17.8275862 C2.27586207,18.330583 2.47567677,18.8129784 2.83134922,19.1686508 C3.18702167,19.5243232 3.66941703,19.7241379 4.17241382,19.7241379 L18.5862069,19.7241379 C19.6336435,19.7241379 20.4827586,18.8750228 20.4827586,17.8275862 L20.4827586,17.8275862 Z M7.20689657,9.48275861 C5.94997266,9.48275861 4.9310345,8.46382045 4.9310345,7.20689654 C4.9310345,5.94997262 5.94997266,4.93103446 7.20689657,4.93103446 C8.46382049,4.93103446 9.48275864,5.94997262 9.48275864,7.20689654 C9.48275864,8.46382045 8.46382049,9.48275861 7.20689657,9.48275861 Z" id="形状"></path>
            </g>
        </g>
    </g>
</svg>