<?xml version="1.0" encoding="UTF-8"?>
<svg width="44px" height="42px" viewBox="0 0 44 42" version="1.1" xmlns="http://www.w3.org/2000/svg" xmlns:xlink="http://www.w3.org/1999/xlink">
    <title>管理</title>
    <g id="页面-1" stroke="none" stroke-width="1" fill="none" fill-rule="evenodd">
        <g id="管理">
            <path d="M36,0 L8,0 C3.581722,0 0,3.581722 0,8 L0,24.5714286 C0,28.9897066 3.581722,32.5714286 8,32.5714286 L36,32.5714286 C40.418278,32.5714286 44,28.9897066 44,24.5714286 L44,8 C44,3.581722 40.418278,0 36,0 Z M8,4 L36,4 C38.209139,4 40,5.790861 40,8 L40,24.5714286 C40,26.7805676 38.209139,28.5714286 36,28.5714286 L8,28.5714286 C5.790861,28.5714286 4,26.7805676 4,24.5714286 L4,8 C4,5.790861 5.790861,4 8,4 Z" id="矩形" fill="#323333" fill-rule="nonzero"></path>
            <path d="M19.4029389,20.7617071 L23.86136,12.8463363 L26.387388,14.269175 L21.9292084,22.1843042 L19.4029389,20.7617071 Z M14.9401687,22.725268 L9.62717449,17.5717361 L14.7879547,12.3312247 L16.8537164,14.3655772 L13.7417853,17.5234142 L16.9600246,20.6425936 L14.9401687,22.725268 L14.9401687,22.725268 Z M30.821165,22.725268 L28.8013091,20.6425936 L32.0195484,17.5234142 L28.9076173,14.3655772 L30.973379,12.3312247 L36.1341592,17.5717361 L30.821165,22.725268 L30.821165,22.725268 Z" id="形状" fill="#00CB61" fill-rule="nonzero"></path>
            <rect id="矩形" fill="#323333" x="9.61904762" y="37.2380952" width="24.7619048" height="3.80952381" rx="1.9047619"></rect>
        </g>
    </g>
</svg>