<?xml version="1.0" encoding="UTF-8"?>
<svg width="40px" height="39px" viewBox="0 0 40 39" version="1.1" xmlns="http://www.w3.org/2000/svg" xmlns:xlink="http://www.w3.org/1999/xlink">
    <title>多样</title>
    <g id="页面-1" stroke="none" stroke-width="1" fill="none" fill-rule="evenodd">
        <g id="PC" transform="translate(-600.000000, -3731.000000)" fill-rule="nonzero">
            <g id="多样" transform="translate(600.000000, 3731.076172)">
                <path d="M36.2906167,12.7770868 L21.3516549,12.7770868 L20.3644179,7.83993624 C20.0625475,6.3305843 19.2409771,4.9622662 18.0504003,3.98613811 C16.8603065,3.01049301 15.3567504,2.47292223 13.8179359,2.47292223 C10.6364635,2.47292223 8.04762307,5.06127969 8.04762307,8.24323508 L8.04762307,12.7770868 L6.14849608,12.7770868 C5.0144294,12.7770868 3.92866199,13.1982564 3.09115278,13.9628337 C2.25364358,14.727411 1.73587548,15.7706751 1.63348105,16.8999119 L0.0154557639,34.697224 C0.00531291885,34.8083123 0,34.9213326 0,35.0329039 C0,37.0783776 1.66390958,38.7422872 3.70938334,38.7422872 L34.6040064,38.7422872 C35.5318353,38.7422872 36.4200587,38.3979135 37.1054252,37.771955 C37.7907917,37.1464796 38.2143763,36.2930316 38.298417,35.3685837 L39.9845442,16.82215 C39.9946871,16.7105787 40,16.5975585 40,16.4859872 C40,14.4409964 38.3360904,12.7770868 36.2906167,12.7770868 L36.2906167,12.7770868 Z M3.29787362,35.0333869 C3.29787362,35.0208291 3.29835662,35.0082712 3.2998056,34.9961964 L4.91783088,17.1988843 C4.97627299,16.5579531 5.5056329,16.0744775 6.14897907,16.0744775 L8.04810607,16.0744775 L8.04810607,35.4458626 L3.71034932,35.4458626 C3.4828598,35.4453796 3.29787362,35.2603934 3.29787362,35.0333869 L3.29787362,35.0333869 Z M36.7011604,16.5236606 L35.0150331,35.0705773 C34.9965158,35.2832836 34.8179984,35.4462595 34.6044894,35.4453831 L11.3450137,35.4453831 L11.3450137,8.24323508 C11.3450137,6.87974691 12.4544478,5.77031286 13.8179359,5.77031286 C15.4229204,5.77031286 16.8163541,6.91259041 17.1312653,8.48666337 L18.3836652,14.7491457 C18.5377398,15.5195189 19.2144125,16.0744775 20.0002415,16.0744775 L36.2906167,16.0744775 C36.5181062,16.0744775 36.7027378,16.2594636 36.7027378,16.4864702 C36.7030924,16.498545 36.7021264,16.5111028 36.7011604,16.5236606 L36.7011604,16.5236606 Z" id="形状" fill="#3F3F3F"></path>
                <polygon id="路径" fill="#FF5600" points="29.9508555 0 31.4080442 4.37156622 35.7796105 5.82875497 31.4080442 7.28594371 29.9508555 11.6575099 28.4936668 7.28594371 24.1221005 5.82875497 28.4936668 4.37156622"></polygon>
            </g>
        </g>
    </g>
</svg>