<?xml version="1.0" encoding="UTF-8"?>
<svg width="44px" height="42px" viewBox="0 0 44 42" version="1.1" xmlns="http://www.w3.org/2000/svg" xmlns:xlink="http://www.w3.org/1999/xlink">
    <title>管理</title>
    <g id="页面-1" stroke="none" stroke-width="1" fill="none" fill-rule="evenodd">
        <g id="PC" transform="translate(-598.000000, -1857.000000)">
            <g id="管理" transform="translate(600.000000, 1859.000000)">
                <path d="M34,-2 L6,-2 C1.581722,-2 -2,1.581722 -2,6 L-2,22.5714286 C-2,26.9897066 1.581722,30.5714286 6,30.5714286 L34,30.5714286 C38.418278,30.5714286 42,26.9897066 42,22.5714286 L42,6 C42,1.581722 38.418278,-2 34,-2 Z M6,2 L34,2 C36.209139,2 38,3.790861 38,6 L38,22.5714286 C38,24.7805676 36.209139,26.5714286 34,26.5714286 L6,26.5714286 C3.790861,26.5714286 2,24.7805676 2,22.5714286 L2,6 C2,3.790861 3.790861,2 6,2 Z" id="矩形" fill="#323333" fill-rule="nonzero"></path>
                <path d="M17.4029389,18.7617071 L21.86136,10.8463363 L24.387388,12.269175 L19.9292084,20.1843042 L17.4029389,18.7617071 Z M12.9401687,20.725268 L7.62717449,15.5717361 L12.7879547,10.3312247 L14.8537164,12.3655772 L11.7417853,15.5234142 L14.9600246,18.6425936 L12.9401687,20.725268 L12.9401687,20.725268 Z M28.821165,20.725268 L26.8013091,18.6425936 L30.0195484,15.5234142 L26.9076173,12.3655772 L28.973379,10.3312247 L34.1341592,15.5717361 L28.821165,20.725268 L28.821165,20.725268 Z" id="形状" fill="#FF5600" fill-rule="nonzero"></path>
                <rect id="矩形" fill="#323333" x="7.61904762" y="35.2380952" width="24.7619048" height="3.80952381" rx="1.9047619"></rect>
            </g>
        </g>
    </g>
</svg>