<?xml version="1.0" encoding="UTF-8"?>
<svg width="38px" height="44px" viewBox="0 0 38 44" version="1.1" xmlns="http://www.w3.org/2000/svg" xmlns:xlink="http://www.w3.org/1999/xlink">
    <title>认证</title>
    <g id="页面-1" stroke="none" stroke-width="1" fill="none" fill-rule="evenodd">
        <g id="认证" fill-rule="nonzero">
            <path d="M17.4646914,0.290638511 L2.04711197,7.06580819 C0.80361529,7.61255972 0.000570566725,8.84232693 0,10.200716 L0,20.8191456 C0,27.3227945 2.90878333,33.1343654 8.034272,37.13951 L16.868545,43.3733513 C18.0527784,44.2088829 19.6346382,44.2088829 20.8188715,43.3733513 L29.586335,37.1891889 C34.7786332,33.1335089 37.6874165,27.321938 37.6874165,20.8191456 L37.6874165,10.2015725 C37.6874165,8.84256185 36.8843701,7.61195342 35.6403045,7.06495164 L20.2227251,0.289782012 C19.3439764,-0.096594004 18.3434401,-0.096594004 17.4646914,0.289782012 L17.4646914,0.290638511 Z M3.42612879,10.2015725 L18.8437083,3.42640289 L34.2612877,10.2015725 L34.2612877,20.8191456 C34.2612877,26.2546989 31.8484365,31.0761186 27.5435057,34.4397205 L18.8437083,40.5733476 L10.0762447,34.3891851 C5.83897998,31.073549 3.42612879,26.2529858 3.42612879,20.8174325 L3.42612879,10.2015725 Z" id="形状" fill="#323333"></path>
            <path d="M27.4090302,14.4037195 L29.8313032,16.8259925 L18.6963847,27.960911 C18.0274333,28.6296604 16.9430631,28.6296604 16.2741117,27.960911 L9.42185415,21.1086535 L11.8441272,18.6863804 L17.4852482,24.3266449 L27.4090302,14.4037195 Z" id="路径" fill="#00CB61"></path>
        </g>
    </g>
</svg>