<?xml version="1.0" encoding="UTF-8"?>
<svg width="56px" height="56px" viewBox="0 0 56 56" version="1.1" xmlns="http://www.w3.org/2000/svg" xmlns:xlink="http://www.w3.org/1999/xlink">
    <title>Country Flags/North &amp; South America/flag_United_States_US</title>
    <defs>
        <circle id="path-1" cx="28" cy="28" r="28"></circle>
        <linearGradient x1="50%" y1="0%" x2="50%" y2="100%" id="linearGradient-3">
            <stop stop-color="#FFFFFF" offset="0%"></stop>
            <stop stop-color="#F0F0F0" offset="100%"></stop>
        </linearGradient>
        <path d="M9.33333333,7.46666667 C10.3642649,7.46666667 11.2,8.3024018 11.2,9.33333333 C11.2,10.3642649 10.3642649,11.2 9.33333333,11.2 C8.3024018,11.2 7.46666667,10.3642649 7.46666667,9.33333333 C7.46666667,8.3024018 8.3024018,7.46666667 9.33333333,7.46666667 Z M5.6,3.73333333 C6.63093153,3.73333333 7.46666667,4.56906847 7.46666667,5.6 C7.46666667,6.63093153 6.63093153,7.46666667 5.6,7.46666667 C4.56906847,7.46666667 3.73333333,6.63093153 3.73333333,5.6 C3.73333333,4.56906847 4.56906847,3.73333333 5.6,3.73333333 Z M16.8,7.46666667 C17.8309315,7.46666667 18.6666667,8.3024018 18.6666667,9.33333333 C18.6666667,10.3642649 17.8309315,11.2 16.8,11.2 C15.7690685,11.2 14.9333333,10.3642649 14.9333333,9.33333333 C14.9333333,8.3024018 15.7690685,7.46666667 16.8,7.46666667 Z M24.2666667,7.46666667 C25.2975982,7.46666667 26.1333333,8.3024018 26.1333333,9.33333333 C26.1333333,10.3642649 25.2975982,11.2 24.2666667,11.2 C23.2357351,11.2 22.4,10.3642649 22.4,9.33333333 C22.4,8.3024018 23.2357351,7.46666667 24.2666667,7.46666667 Z M13.0666667,3.73333333 C14.0975982,3.73333333 14.9333333,4.56906847 14.9333333,5.6 C14.9333333,6.63093153 14.0975982,7.46666667 13.0666667,7.46666667 C12.0357351,7.46666667 11.2,6.63093153 11.2,5.6 C11.2,4.56906847 12.0357351,3.73333333 13.0666667,3.73333333 Z M20.5333333,3.73333333 C21.5642649,3.73333333 22.4,4.56906847 22.4,5.6 C22.4,6.63093153 21.5642649,7.46666667 20.5333333,7.46666667 C19.5024018,7.46666667 18.6666667,6.63093153 18.6666667,5.6 C18.6666667,4.56906847 19.5024018,3.73333333 20.5333333,3.73333333 Z M28,7.46666667 C29.0309315,7.46666667 29.8666667,6.63093153 29.8666667,5.6 C29.8666667,4.56906847 29.0309315,3.73333333 28,3.73333333 C26.9690685,3.73333333 26.1333333,4.56906847 26.1333333,5.6 C26.1333333,6.63093153 26.9690685,7.46666667 28,7.46666667 Z M28,14.9333333 C29.0309315,14.9333333 29.8666667,14.0975982 29.8666667,13.0666667 C29.8666667,12.0357351 29.0309315,11.2 28,11.2 C26.9690685,11.2 26.1333333,12.0357351 26.1333333,13.0666667 C26.1333333,14.0975982 26.9690685,14.9333333 28,14.9333333 Z M20.5333333,14.9333333 C21.5642649,14.9333333 22.4,14.0975982 22.4,13.0666667 C22.4,12.0357351 21.5642649,11.2 20.5333333,11.2 C19.5024018,11.2 18.6666667,12.0357351 18.6666667,13.0666667 C18.6666667,14.0975982 19.5024018,14.9333333 20.5333333,14.9333333 Z M13.0666667,14.9333333 C14.0975982,14.9333333 14.9333333,14.0975982 14.9333333,13.0666667 C14.9333333,12.0357351 14.0975982,11.2 13.0666667,11.2 C12.0357351,11.2 11.2,12.0357351 11.2,13.0666667 C11.2,14.0975982 12.0357351,14.9333333 13.0666667,14.9333333 Z M5.6,14.9333333 C6.63093153,14.9333333 7.46666667,14.0975982 7.46666667,13.0666667 C7.46666667,12.0357351 6.63093153,11.2 5.6,11.2 C4.56906847,11.2 3.73333333,12.0357351 3.73333333,13.0666667 C3.73333333,14.0975982 4.56906847,14.9333333 5.6,14.9333333 Z M9.33333333,18.6666667 C10.3642649,18.6666667 11.2,17.8309315 11.2,16.8 C11.2,15.7690685 10.3642649,14.9333333 9.33333333,14.9333333 C8.3024018,14.9333333 7.46666667,15.7690685 7.46666667,16.8 C7.46666667,17.8309315 8.3024018,18.6666667 9.33333333,18.6666667 Z M16.8,18.6666667 C17.8309315,18.6666667 18.6666667,17.8309315 18.6666667,16.8 C18.6666667,15.7690685 17.8309315,14.9333333 16.8,14.9333333 C15.7690685,14.9333333 14.9333333,15.7690685 14.9333333,16.8 C14.9333333,17.8309315 15.7690685,18.6666667 16.8,18.6666667 Z M24.2666667,18.6666667 C25.2975982,18.6666667 26.1333333,17.8309315 26.1333333,16.8 C26.1333333,15.7690685 25.2975982,14.9333333 24.2666667,14.9333333 C23.2357351,14.9333333 22.4,15.7690685 22.4,16.8 C22.4,17.8309315 23.2357351,18.6666667 24.2666667,18.6666667 Z M28,22.4 C29.0309315,22.4 29.8666667,21.5642649 29.8666667,20.5333333 C29.8666667,19.5024018 29.0309315,18.6666667 28,18.6666667 C26.9690685,18.6666667 26.1333333,19.5024018 26.1333333,20.5333333 C26.1333333,21.5642649 26.9690685,22.4 28,22.4 Z M20.5333333,22.4 C21.5642649,22.4 22.4,21.5642649 22.4,20.5333333 C22.4,19.5024018 21.5642649,18.6666667 20.5333333,18.6666667 C19.5024018,18.6666667 18.6666667,19.5024018 18.6666667,20.5333333 C18.6666667,21.5642649 19.5024018,22.4 20.5333333,22.4 Z M13.0666667,22.4 C14.0975982,22.4 14.9333333,21.5642649 14.9333333,20.5333333 C14.9333333,19.5024018 14.0975982,18.6666667 13.0666667,18.6666667 C12.0357351,18.6666667 11.2,19.5024018 11.2,20.5333333 C11.2,21.5642649 12.0357351,22.4 13.0666667,22.4 Z M5.6,22.4 C6.63093153,22.4 7.46666667,21.5642649 7.46666667,20.5333333 C7.46666667,19.5024018 6.63093153,18.6666667 5.6,18.6666667 C4.56906847,18.6666667 3.73333333,19.5024018 3.73333333,20.5333333 C3.73333333,21.5642649 4.56906847,22.4 5.6,22.4 Z" id="path-4"></path>
        <filter x="-3.8%" y="-5.4%" width="107.7%" height="121.4%" filterUnits="objectBoundingBox" id="filter-5">
            <feOffset dx="0" dy="2" in="SourceAlpha" result="shadowOffsetOuter1"></feOffset>
            <feColorMatrix values="0 0 0 0 0   0 0 0 0 0   0 0 0 0 0  0 0 0 0.06 0" type="matrix" in="shadowOffsetOuter1"></feColorMatrix>
        </filter>
    </defs>
    <g id="Country-Flags/North-&amp;-South-America/flag_United_States_US" stroke="none" stroke-width="1" fill="none" fill-rule="evenodd">
        <g id="编组">
            <mask id="mask-2" fill="white">
                <use xlink:href="#path-1"></use>
            </mask>
            <use id="蒙版" fill="#D8D8D8" xlink:href="#path-1"></use>
            <g mask="url(#mask-2)">
                <g transform="translate(0.000000, 0.000000)">
                    <rect id="矩形" fill="#FFFFFF" x="0" y="0" width="78.4" height="54.6"></rect>
                    <g id="US" stroke-width="1" fill="none">
                        <path d="M0,0 L78.4,0 L78.4,3.73333333 L0,3.73333333 L0,0 Z M0,7.46666667 L78.4,7.46666667 L78.4,11.2 L0,11.2 L0,7.46666667 Z M0,14.9333333 L78.4,14.9333333 L78.4,18.6666667 L0,18.6666667 L0,14.9333333 Z M0,22.4 L78.4,22.4 L78.4,26.1333333 L0,26.1333333 L0,22.4 Z M0,29.8666667 L78.4,29.8666667 L78.4,33.6 L0,33.6 L0,29.8666667 Z M0,37.3333333 L78.4,37.3333333 L78.4,41.0666667 L0,41.0666667 L0,37.3333333 Z M0,44.8 L78.4,44.8 L78.4,48.5333333 L0,48.5333333 L0,44.8 Z M0,52.2666667 L78.4,52.2666667 L78.4,56 L0,56 L0,52.2666667 Z" id="Rectangle-511" fill="#D02F44"></path>
                        <rect id="Rectangle-511" fill="#46467F" x="0" y="0" width="33.6" height="26.1333333"></rect>
                        <g id="Oval-43">
                            <use fill="black" fill-opacity="1" filter="url(#filter-5)" xlink:href="#path-4"></use>
                            <use fill="url(#linearGradient-3)" fill-rule="evenodd" xlink:href="#path-4"></use>
                        </g>
                    </g>
                </g>
            </g>
        </g>
    </g>
</svg>