<?xml version="1.0" encoding="UTF-8"?>
<svg width="56px" height="56px" viewBox="0 0 56 56" version="1.1" xmlns="http://www.w3.org/2000/svg" xmlns:xlink="http://www.w3.org/1999/xlink">
    <title>Country Flags/Asia/flag_South_Korea_KR</title>
    <defs>
        <circle id="path-1" cx="10.0394641" cy="10.0394641" r="10.0394641"></circle>
    </defs>
    <g id="Country-Flags/Asia/flag_South_Korea_KR" stroke="none" stroke-width="1" fill="none" fill-rule="evenodd">
        <path d="M28,0 C43.463973,0 56,12.536027 56,28 C56,43.463973 43.463973,56 28,56 C12.536027,56 0,43.463973 0,28 C0,12.536027 12.536027,0 28,0 Z" id="路径" fill="#DEDFE0" fill-rule="nonzero"></path>
        <path d="M28,3 C14.1928813,3 3,14.1928813 3,28 C3,41.8071187 14.1928813,53 28,53 C41.8071187,53 53,41.8071187 53,28 C53,14.1928813 41.8071187,3 28,3 Z" id="路径" fill="#FFFFFF" fill-rule="nonzero"></path>
        <g id="KR" transform="translate(7.925390, 13.782432)">
            <g id="Oval-9" transform="translate(10.478271, 4.178104)">
                <mask id="mask-2" fill="white">
                    <use xlink:href="#path-1"></use>
                </mask>
                <use id="Mask" fill="#E01B41" xlink:href="#path-1"></use>
                <path d="M-4.6629367e-14,11.4736732 C2.86841824,14.1628153 7.17104577,15.7763007 10.0394641,11.4736732 C12.9078824,7.17104577 18.644719,7.17104562 20.0789282,11.4736732 C21.5131373,15.7763009 20.0789282,20.0789282 20.0789282,20.0789282 L-4.6629367e-14,20.0789282 C-4.6629367e-14,20.0789282 -2.86841824,8.78453113 -4.6629367e-14,11.4736732 Z" id="Rectangle-277" fill="#0E4B9C" mask="url(#mask-2)"></path>
            </g>
            <path d="M33.6087798,2.47090331 L37.2361674,8.75372283 C37.4226297,9.07668511 37.3079427,9.49198326 36.9976357,9.67113904 L35.6658158,10.4400656 C35.3476161,10.6237783 34.9365314,10.5074731 34.7520443,10.187932 L31.1246567,3.90511246 C30.9381944,3.58215019 31.0528814,3.16685204 31.3631884,2.98769625 L32.6950083,2.21876967 C33.013208,2.03505696 33.4242927,2.15136215 33.6087798,2.47090331 Z M37.3349645,0.319589576 L40.9623521,6.6024091 C41.1488144,6.92537137 41.0341273,7.34066953 40.7238204,7.51982531 L39.3920005,8.2887519 C39.0738008,8.47246461 38.6627161,8.35615941 38.4782289,8.03661826 L34.8508414,1.75379873 C34.664379,1.43083646 34.7790661,1.0155383 35.089373,0.836382522 L36.421193,0.067455934 C36.7393927,-0.116256774 37.1504774,4.84221454e-05 37.3349645,0.319589576 Z M2.55724077,20.3985177 L6.18462832,26.6813373 C6.37109067,27.0042995 6.25640359,27.4195977 5.94609667,27.5987535 L4.61427676,28.3676801 C4.29607701,28.5513928 3.88499236,28.4350876 3.70050519,28.1155464 L0.0731176489,21.8327269 C-0.113344707,21.5097646 0.0013423773,21.0944665 0.311649292,20.9153107 L1.64346921,20.1463841 C1.96166895,19.9626714 2.3727536,20.0789766 2.55724077,20.3985177 Z M6.28342546,18.247204 L9.91081301,24.5300235 C10.0972754,24.8529858 9.98258828,25.268284 9.67228136,25.4474397 L8.34046144,26.2163663 C8.0222617,26.400079 7.61117705,26.2837738 7.42668988,25.9642327 L3.79930234,19.6814132 C3.61283998,19.3584509 3.72752706,18.9431527 4.03783398,18.763997 L5.3696539,17.9950704 C5.68785364,17.8113577 6.09893829,17.9276629 6.28342546,18.247204 Z M39.3920005,20.1463841 L40.7238204,20.9153107 C41.0420202,21.0990234 41.1468392,21.5131857 40.9623521,21.8327269 L37.3349645,28.1155464 C37.1485022,28.4385087 36.7314999,28.5468358 36.421193,28.3676801 L35.089373,27.5987535 C34.7711733,27.4150408 34.6663542,27.0008784 34.8508414,26.6813373 L38.4782289,20.3985177 C38.6646913,20.0755555 39.0816936,19.9672283 39.3920005,20.1463841 Z M35.6658158,17.9950704 L36.9976357,18.763997 C37.3158355,18.9477097 37.4206546,19.361872 37.2361674,19.6814132 L33.6087798,25.9642327 C33.4223175,26.287195 33.0053152,26.3955221 32.6950083,26.2163663 L31.3631884,25.4474397 C31.0449886,25.263727 30.9401695,24.8495647 31.1246567,24.5300235 L34.7520443,18.247204 C34.9385066,17.9242417 35.3555089,17.8159146 35.6658158,17.9950704 Z M8.34046144,2.21876967 L9.67228136,2.98769625 C9.99048111,3.17140896 10.0953002,3.58557131 9.91081301,3.90511246 L6.28342546,10.187932 C6.09696311,10.5108943 5.67996081,10.6192214 5.3696539,10.4400656 L4.03783398,9.67113904 C3.71963424,9.48742633 3.61481517,9.07326399 3.79930234,8.75372283 L7.42668988,2.47090331 C7.61315224,2.14794103 8.03015453,2.03961389 8.34046144,2.21876967 Z M4.61427676,0.067455934 L5.94609667,0.836382522 C6.26429642,1.02009523 6.36911549,1.43425758 6.18462832,1.75379873 L2.55724077,8.03661826 C2.37077842,8.35958053 1.95377612,8.46790768 1.64346921,8.2887519 L0.311649292,7.51982531 C-0.00655045228,7.3361126 -0.111369522,6.92195025 0.0731176489,6.6024091 L3.70050519,0.319589576 C3.88696755,-0.00337269747 4.30396984,-0.111699847 4.61427676,0.067455934 Z" id="Rectangle-278" fill="#262626" opacity="0.75"></path>
        </g>
    </g>
</svg>