<?xml version="1.0" encoding="UTF-8"?>
<svg width="56px" height="56px" viewBox="0 0 56 56" version="1.1" xmlns="http://www.w3.org/2000/svg" xmlns:xlink="http://www.w3.org/1999/xlink">
    <title>Country Flags/Asia/flag_China_CN</title>
    <defs>
        <circle id="path-1" cx="28" cy="28" r="28"></circle>
    </defs>
    <g id="Country-Flags/Asia/flag_China_CN" stroke="none" stroke-width="1" fill="none" fill-rule="evenodd">
        <mask id="mask-2" fill="white">
            <use xlink:href="#path-1"></use>
        </mask>
        <use id="蒙版" fill="#D8D8D8" xlink:href="#path-1"></use>
        <g id="CN" mask="url(#mask-2)">
            <g transform="translate(0.000000, 0.000000)">
                <rect id="Mask" fill="#F1361D" x="0" y="0" width="78.4" height="56"></rect>
                <path d="M37.8164622,16.7363949 L35.4666667,18.1664948 L35.5302718,15.4164622 L34.1001718,13.0666667 L36.8502044,13.1302718 L39.2,11.7001718 L39.1363949,14.4502044 L40.5664948,16.8 L37.8164622,16.7363949 Z M30.9150405,9.14441555 L28.2033973,8.68212111 L30.0555844,6.64837386 L30.5178789,3.93673065 L32.5516261,5.78891778 L35.2632693,6.25121222 L33.4110822,8.28495947 L32.9487878,10.9966027 L30.9150405,9.14441555 Z M32.2790938,33.5184355 L29.9806395,35.029671 L29.9482311,32.2790938 L28.4369957,29.9806395 L31.1875728,29.9482311 L33.4860272,28.4369957 L33.5184355,31.1875728 L35.029671,33.4860272 L32.2790938,33.5184355 Z M37.0091901,26.1049745 L34.2751657,26.4080187 L35.4950255,23.9425234 L35.1919813,21.208499 L37.6574766,22.4283589 L40.391501,22.1253146 L39.1716411,24.5908099 L39.4746854,27.3248343 L37.0091901,26.1049745 Z" id="Star-2" fill="#FFDC42"></path>
                <polygon id="Star-8" fill="#FFDC42" points="18.6666667 23.0346668 12.0834718 27.727657 14.5124516 20.016453 8.01483368 15.2056763 16.0992206 15.1328803 18.6666667 7.46666667 21.2341128 15.1328803 29.3184996 15.2056763 22.8208817 20.016453 25.2498615 27.727657"></polygon>
            </g>
        </g>
    </g>
</svg>