<?xml version="1.0" encoding="UTF-8"?>
<svg width="558px" height="160px" viewBox="0 0 558 160" version="1.1" xmlns="http://www.w3.org/2000/svg" xmlns:xlink="http://www.w3.org/1999/xlink">
    <title>编组 13</title>
    <g id="页面-1" stroke="none" stroke-width="1" fill="none" fill-rule="evenodd">
        <g id="编组-13" transform="translate(0.014536, 0.000000)" fill-rule="nonzero">
            <path d="M87.3778429,0 C101.856697,0 113.594127,11.7374303 113.594127,26.2162843 C113.594127,32.4631417 111.409246,38.1996927 107.761974,42.7034472 C116.977315,49.1431263 123.005101,59.8309952 123.005101,71.9267288 C123.005101,91.6031202 107.054234,107.553987 87.3778429,107.553987 C71.9497181,107.553987 58.4207978,97.6585533 53.592579,83.2576947 C53.5551181,83.1459623 53.5202408,83.0339861 53.4879148,82.9218312 C50.4149378,75.9120631 43.4566344,71.2545164 35.6272582,71.2545164 C24.8609309,71.2545164 16.1330981,79.9823492 16.1330981,90.7486766 C16.1330981,101.515004 24.8609309,110.242837 35.6272582,110.242837 C40.5237428,110.242837 45.1179086,108.440475 48.6742027,105.233475 L48.9150603,105.012644 C52.1738714,101.974971 57.2781807,102.154238 60.3158543,105.413049 C62.2852793,107.525845 62.902508,110.41437 62.2049834,113.012498 C61.8674428,114.284064 61.2144161,115.489052 60.2462786,116.503128 L60.0907836,116.661653 L18.7900688,157.645819 C15.6277901,160.78386 10.5203716,160.764212 7.38233016,157.601933 C4.29658943,154.492359 4.2641591,149.501943 7.27072055,146.35272 L7.42621556,146.194195 L28.182187,125.596847 C12.0797013,122.173433 0,107.871738 0,90.7486766 C0,71.0722852 15.9508668,55.1214184 35.6272582,55.1214184 C50.437138,55.1214184 63.541443,64.2427647 68.8311622,77.813082 C68.9741903,78.1800081 69.0885302,78.5510423 69.1752689,78.9237089 C72.0335731,86.3657478 79.2220781,91.420889 87.3778429,91.420889 C98.1441703,91.420889 106.872003,82.6930562 106.872003,71.9267288 C106.872003,61.1604015 98.1441703,52.4325687 87.3778429,52.4325687 C82.4652269,52.4325687 77.8569913,54.2469446 74.2964562,57.4730551 L74.0553247,57.6952 C70.8038632,60.7407392 65.6991356,60.5738062 62.6535965,57.3223447 C59.6080573,54.0708833 59.7749903,48.9661557 63.0264518,45.9206165 C64.2768625,44.7493971 65.6031318,43.6748474 66.9944307,42.7027186 C63.3464397,38.1996927 61.1615585,32.4631417 61.1615585,26.2162843 C61.1615585,11.7374303 72.8989889,0 87.3778429,0 Z M87.3778429,16.1330981 C81.8090529,16.1330981 77.2946566,20.6474943 77.2946566,26.2162843 C77.2946566,31.7850744 81.8090529,36.2994706 87.3778429,36.2994706 C92.9466329,36.2994706 97.4610292,31.7850744 97.4610292,26.2162843 C97.4610292,20.6474943 92.9466329,16.1330981 87.3778429,16.1330981 Z" id="形状结合" fill="#00CB61"></path>
            <path d="M63.2185286,125.300395 L72.770667,125.300395 C75.7597716,125.300395 78.1640513,126.086659 79.9835063,127.659188 C81.8029612,129.231717 82.7126887,131.22662 82.7126887,133.643895 C82.7126887,136.113156 81.8094593,138.121054 80.0030004,139.667591 C78.1965416,141.214128 75.7857638,141.987396 72.770667,141.987396 L67.6242087,141.987396 L67.6242087,152.592219 L63.2185286,152.592219 L63.2185286,125.300395 Z M67.6242087,138.205529 L72.5757254,138.205529 C76.4745575,138.205529 78.4239735,136.684984 78.4239735,133.643895 C78.4239735,132.110355 77.9041292,130.966697 76.8644407,130.212923 C75.8247521,129.459149 74.3951804,129.082262 72.5757254,129.082262 L67.6242087,129.082262 L67.6242087,138.205529 Z M86.8064623,152.592219 L86.8064623,125.300395 L91.1731542,125.300395 L91.1731542,152.592219 L86.8064623,152.592219 Z M110.745291,152.592219 L110.745291,149.3172 C110.667314,150.174943 110.017509,150.980702 108.795875,151.734476 C107.574241,152.48825 106.183658,152.865137 104.624125,152.865137 C103.50646,152.865137 102.40179,152.644204 101.310117,152.202336 C100.218445,151.760468 99.1982501,151.130157 98.2495343,150.311402 C97.3008186,149.492648 96.5340483,148.400975 95.9492235,147.036383 C95.3643986,145.671792 95.0719862,144.14475 95.0719862,142.455256 C95.0719862,140.791754 95.3643986,139.277708 95.9492235,137.913117 C96.5340483,136.548525 97.3008186,135.456852 98.2495343,134.638098 C99.1982501,133.819343 100.218445,133.189032 101.310117,132.747164 C102.40179,132.305296 103.50646,132.084363 104.624125,132.084363 C107.457276,132.084363 109.497665,133.033078 110.745291,134.93051 L110.745291,132.318293 L115.034006,132.318293 L115.034006,152.592219 L110.745291,152.592219 Z M105.169961,149.161247 C106.755486,149.161247 108.113579,148.595916 109.244241,147.465255 C110.374902,146.334594 110.940233,144.664594 110.940233,142.455256 C110.940233,140.219925 110.374902,138.549926 109.244241,137.445257 C108.113579,136.340588 106.755486,135.788253 105.169961,135.788253 C103.662413,135.788253 102.317316,136.386074 101.13467,137.581716 C99.9520243,138.777358 99.3607015,140.401871 99.3607015,142.455256 C99.3607015,144.508641 99.9520243,146.139652 101.13467,147.34829 C102.317316,148.556928 103.662413,149.161247 105.169961,149.161247 Z M139.32373,132.318293 L128.095094,160 L123.884355,160 L127.120386,152.007394 L118.542955,132.318293 L122.792682,132.318293 L129.147778,146.977901 L135.074003,132.318293 L139.32373,132.318293 Z" id="形状结合" fill="#FFFFFF"></path>
            <path d="M196.992692,71.9488411 L223.30627,71.9488411 C223.30627,83.3735039 219.952579,92.6606492 213.245196,99.8102769 C206.537813,106.959905 198.208865,110.534718 188.258353,110.534718 C181.8458,110.534718 175.728077,108.894727 169.905185,105.614743 C164.082292,102.334759 159.291304,97.6359056 155.532222,91.5181829 C151.773139,85.4004602 149.893598,78.5825163 149.893598,71.0643511 C149.893598,63.5461859 151.773139,56.7282419 155.532222,50.6105192 C159.291304,44.4927966 164.082292,39.7939433 169.905185,36.5139595 C175.728077,33.2339756 181.8458,31.5939837 188.258353,31.5939837 C194.081245,31.5939837 199.369759,32.5706081 204.123893,34.5238569 C208.878026,36.4771057 212.655536,39.0752952 215.456421,42.3184253 L207.274888,50.942203 C205.432201,48.7309779 202.852438,46.943571 199.535601,45.5799822 C196.218763,44.2163934 192.533388,43.534599 188.479475,43.534599 C181.919508,43.534599 176.00448,46.1880691 170.734394,51.4950093 C165.464308,56.8019494 162.829264,63.2882096 162.829264,70.9537898 C162.829264,78.61937 165.501161,85.1240571 170.844955,90.467851 C176.188749,95.8116449 182.066923,98.4835419 188.479475,98.4835419 C193.196755,98.4835419 197.41651,97.1015262 201.138739,94.3374949 C204.860968,91.5734635 207.569718,87.795954 209.264991,83.0049664 L196.992692,83.0049664 L196.992692,71.9488411 Z M277.702407,109.76079 L277.702407,100.473644 C277.481284,102.905992 275.638596,105.190925 272.174344,107.328442 C268.710091,109.46596 264.76674,110.534718 260.34429,110.534718 C257.174867,110.534718 254.042298,109.908205 250.946583,108.655177 C247.850868,107.40215 244.957849,105.614743 242.267525,103.292956 C239.577201,100.97117 237.40283,97.875455 235.744411,94.0058111 C234.085992,90.1361672 233.256783,85.8058515 233.256783,81.0148639 C233.256783,76.2975837 234.085992,72.0041217 235.744411,68.1344779 C237.40283,64.264834 239.577201,61.1691189 242.267525,58.8473326 C244.957849,56.5255463 247.850868,54.7381394 250.946583,53.4851118 C254.042298,52.2320843 257.174867,51.6055705 260.34429,51.6055705 C268.378407,51.6055705 274.164446,54.2958943 277.702407,59.676542 L277.702407,52.268938 L289.864144,52.268938 L289.864144,109.76079 L277.702407,109.76079 Z M261.892147,100.031399 C266.388305,100.031399 270.239522,98.4282612 273.445798,95.2219849 C276.652075,92.0157085 278.255213,87.2800015 278.255213,81.0148639 C278.255213,74.6760187 276.652075,69.9403117 273.445798,66.8077428 C270.239522,63.675174 266.388305,62.1088896 261.892147,62.1088896 C257.617112,62.1088896 253.802749,63.8041621 250.449058,67.1947072 C247.095366,70.5852523 245.418521,75.1919712 245.418521,81.0148639 C245.418521,86.8377565 247.095366,91.4629023 250.449058,94.8903011 C253.802749,98.3177 257.617112,100.031399 261.892147,100.031399 Z M373.116768,51.7161318 C380.192688,51.7161318 385.978727,53.8352225 390.474885,58.0734038 C394.971042,62.3115852 397.219121,69.1111023 397.219121,78.471955 L397.219121,109.76079 L384.946822,109.76079 L384.946822,78.3613938 C384.946822,73.1281611 383.767502,69.1111023 381.408862,66.3102172 C379.050222,63.5093321 376.065068,62.1088896 372.4534,62.1088896 C364.566698,62.1088896 359.149196,66.6050472 356.200896,75.5973625 L356.311457,78.471955 L356.311457,109.76079 L344.039158,109.76079 L344.039158,78.3613938 C344.039158,73.1281611 342.841411,69.1111023 340.445918,66.3102172 C338.050424,63.5093321 335.009989,62.1088896 331.324614,62.1088896 C323.216789,62.1088896 317.909849,67.4526835 315.403794,78.1402713 L315.403794,109.76079 L303.131495,109.76079 L303.131495,52.268938 L315.403794,52.268938 L315.403794,65.2046047 C315.403794,62.4037196 316.951651,59.4554195 320.047366,56.3597044 C323.143082,53.2639893 327.123287,51.7161318 331.987982,51.7161318 C343.117815,51.7161318 350.488565,56.2122894 354.100232,65.2046047 C354.911015,61.8877671 357.048533,58.8104788 360.512785,55.97274 C363.977038,53.1350012 368.178365,51.7161318 373.116768,51.7161318 Z M422.869332,52.268938 L422.869332,109.76079 L410.486472,109.76079 L410.486472,52.268938 L422.869332,52.268938 Z M466.872711,51.7161318 C473.801216,51.7161318 479.49512,53.7983687 483.954424,57.9628426 C488.413728,62.1273164 490.64338,68.4477347 490.64338,76.9240975 L490.64338,109.76079 L478.481642,109.76079 L478.481642,77.587465 C478.481642,67.3421222 474.169753,62.2194508 465.545976,62.2194508 C461.049818,62.2194508 457.272308,63.9331502 454.213447,67.3605491 C451.154586,70.7879479 449.367179,74.0126512 448.851226,77.0346587 L448.851226,109.76079 L436.689489,109.76079 L436.689489,52.268938 L448.851226,52.268938 L448.851226,64.5412371 C449.219764,61.8877671 451.025598,59.086882 454.268728,56.1385819 C457.511858,53.1902818 461.713185,51.7161318 466.872711,51.7161318 Z M557.201254,52.268938 L557.201254,109.76079 C557.201254,113.814702 556.316764,117.371089 554.547784,120.429951 C552.778804,123.488812 550.493872,125.847452 547.692987,127.505871 C544.892102,129.16429 542.017509,130.39889 539.069209,131.209673 C536.120909,132.020455 533.246316,132.425847 530.445431,132.425847 C524.106586,132.425847 518.431108,130.914843 513.418998,127.892835 L513.418998,117.278955 C518.357401,120.37467 524.032879,121.922528 530.445431,121.922528 C534.794174,121.922528 538.313707,120.798488 541.004031,118.550409 C543.694355,116.30233 545.039517,113.372457 545.039517,109.76079 L545.039517,100.473644 C544.818394,102.905992 542.975707,105.190925 539.511454,107.328442 C536.047201,109.46596 532.10385,110.534718 527.6814,110.534718 C524.511977,110.534718 521.379408,109.908205 518.283693,108.655177 C515.187978,107.40215 512.294959,105.614743 509.604635,103.292956 C506.914311,100.97117 504.73994,97.875455 503.081521,94.0058111 C501.423102,90.1361672 500.593893,85.8058515 500.593893,81.0148639 C500.593893,76.2975837 501.423102,72.0041217 503.081521,68.1344779 C504.73994,64.264834 506.914311,61.1691189 509.604635,58.8473326 C512.294959,56.5255463 515.187978,54.7381394 518.283693,53.4851118 C521.379408,52.2320843 524.511977,51.6055705 527.6814,51.6055705 C535.715518,51.6055705 541.501557,54.2958943 545.039517,59.676542 L545.039517,52.268938 L557.201254,52.268938 Z M529.229257,100.031399 C533.725415,100.031399 537.576632,98.4282612 540.782908,95.2219849 C543.989185,92.0157085 545.592323,87.2800015 545.592323,81.0148639 C545.592323,74.6760187 543.989185,69.9403117 540.782908,66.8077428 C537.576632,63.675174 533.725415,62.1088896 529.229257,62.1088896 C524.954222,62.1088896 521.139859,63.8041621 517.786168,67.1947072 C514.432476,70.5852523 512.755631,75.1919712 512.755631,81.0148639 C512.755631,86.8377565 514.432476,91.4629023 517.786168,94.8903011 C521.139859,98.3177 524.954222,100.031399 529.229257,100.031399 Z" id="形状结合" fill="#FFFFFF"></path>
            <polygon id="路径" fill="#0DD764" points="422.869332 31.6265017 422.869332 42.682627 410.486472 42.682627 410.486472 31.6265017"></polygon>
        </g>
    </g>
</svg>