<?xml version="1.0" encoding="UTF-8"?>
<svg width="205px" height="36px" viewBox="0 0 205 36" version="1.1" xmlns="http://www.w3.org/2000/svg" xmlns:xlink="http://www.w3.org/1999/xlink">
    <title>og备份</title>
    <defs>
        <linearGradient x1="45.7326124%" y1="18.1686453%" x2="45.7326124%" y2="84.3551951%" id="linearGradient-1">
            <stop stop-color="#EB8017" offset="0%"></stop>
            <stop stop-color="#E0392D" offset="100%"></stop>
        </linearGradient>
        <linearGradient x1="45.7326124%" y1="18.1686453%" x2="45.7326124%" y2="84.3551951%" id="linearGradient-2">
            <stop stop-color="#EB8017" offset="0%"></stop>
            <stop stop-color="#E0392D" offset="100%"></stop>
        </linearGradient>
    </defs>
    <g id="页面-1" stroke="none" stroke-width="1" fill="none" fill-rule="evenodd">
        <g id="og备份">
            <g id="编组-23备份-2" transform="translate(0.000000, 2.100000)" fill="url(#linearGradient-1)">
                <path d="M15.9,0 C20.9783581,0 25.5006475,2.38081309 28.4115943,6.08716541 L28.4998941,6.20091549 L28.5255393,6.23399641 C28.5823921,6.30814467 28.6386065,6.38280822 28.6941742,6.45797883 L28.7445757,6.52682539 L28.7669939,6.55728696 C28.9020378,6.74295198 29.0331611,6.93165242 29.1602421,7.12326662 C29.1870407,7.16395669 29.2140114,7.20503091 29.2407964,7.24623682 C29.7433083,8.01905245 30.1803211,8.83828094 30.5441698,9.69605939 C30.5561055,9.72440382 30.5680143,9.75270603 30.5798433,9.78104976 C30.7211705,10.119497 30.851123,10.4640882 30.9692207,10.8141356 L31.0210096,10.9704717 L31.0210096,10.9704717 L31.0879635,11.1808253 L31.0879635,11.1808253 C31.1491472,11.378103 31.2064581,11.5763656 31.2599732,11.7761795 C31.3565492,12.1366812 31.4407655,12.5023543 31.5121382,12.8726008 C31.5167362,12.8965102 31.5213739,12.9208711 31.5259559,12.9452516 C31.5994242,13.3361346 31.6585721,13.7320205 31.7028546,14.1323873 L31.7140133,14.2364174 L31.7140133,14.2364174 C31.7406809,14.492868 31.7612599,14.7512959 31.7755878,15.0113899 C31.777161,15.039952 31.7786612,15.0685761 31.7800856,15.0972201 C31.7849279,15.1945911 31.7888947,15.2922125 31.7919775,15.3900569 C31.7929182,15.419904 31.7937815,15.4499584 31.7945613,15.4800336 L31.7954104,15.5141708 C31.7959592,15.5372138 31.7964589,15.560269 31.7969095,15.5833362 L31.8,15.9 L31.8038274,16.1694137 C31.9463959,21.1810632 36.0538614,25.2 41.1,25.2 C45.0742096,25.2 48.4661852,22.7071602 49.7975817,19.1998259 L41.1,19.2 L41.1,12.6 L55.8,12.6 L55.8,12.6 L56.6572534,12.6007309 C56.8818631,13.6651187 57,14.7687632 57,15.9 C57,24.6813275 49.8813275,31.8 41.1,31.8 C36.0216419,31.8 31.4993525,29.4191869 28.5884057,25.7128346 L28.5001059,25.5990845 L28.4759997,25.5680104 C28.2557227,25.2808164 28.0450252,24.985889 27.8443848,24.6837059 C27.8207205,24.6477801 27.7970467,24.6118111 27.7735154,24.5757407 C27.7422467,24.5280942 27.7113469,24.4801668 27.6806988,24.4320635 C27.6263833,24.3465318 27.5727764,24.2605993 27.5199725,24.1741237 C27.2129009,23.6714722 26.9332243,23.1506677 26.6826803,22.6135413 C26.6710372,22.5883524 26.6593112,22.5630417 26.6476499,22.5376952 L26.5339753,22.2850175 L26.5339753,22.2850175 L26.4951593,22.1956377 L26.4951593,22.1956377 C26.4502415,22.0917911 26.4064093,21.987172 26.3636705,21.8819921 L26.3535353,21.8567923 L26.3419036,21.8281404 C26.2591114,21.6222215 26.180504,21.4141697 26.1061866,21.2040904 C26.0349596,21.0026058 25.9675718,20.7990967 25.9042302,20.5938137 C25.8818209,20.5213234 25.8598541,20.4482575 25.8384009,20.3749723 L25.8201689,20.3120872 L25.8201689,20.3120872 C25.7924297,20.2159674 25.7656511,20.1196342 25.7397613,20.0229376 L25.7283592,19.9800182 L25.7283592,19.9800182 L25.7170221,19.9369362 C25.6262757,19.5902963 25.5469631,19.239042 25.4794822,18.8835982 C25.442828,18.6904984 25.4096102,18.4958703 25.3799637,18.3000709 C25.3646544,18.1989883 25.3503282,18.097785 25.3369594,17.99628 C25.3323351,17.9611475 25.3277617,17.9255011 25.3233066,17.889818 C25.314496,17.81926 25.3061997,17.7489928 25.2983631,17.6785869 C25.2940952,17.6402234 25.2899535,17.6017438 25.2859493,17.5632234 L25.2763077,17.467693 C25.254189,17.2416892 25.2368023,17.0142976 25.2242477,16.7856187 C25.2217382,16.7398944 25.2194294,16.6942888 25.2173132,16.6486328 C25.2137458,16.5716948 25.2107183,16.4943885 25.2082445,16.4169425 C25.2072148,16.384709 25.2062783,16.3523498 25.2054387,16.3199664 L25.2040572,16.2627822 C25.2013572,16.1421813 25.2,16.0212492 25.2,15.9 L25.1961726,15.6305863 C25.0536041,10.6189368 20.9461386,6.6 15.9,6.6 C10.7637518,6.6 6.6,10.7637518 6.6,15.9 C6.6,21.0362482 10.7637518,25.2 15.9,25.2 C18.9475072,25.2 21.6526526,23.7341743 23.3488474,21.4691114 C24.0578961,23.734201 25.1896666,25.8133297 26.6512381,27.6139165 C23.8210961,30.2132602 20.0458495,31.8 15.9,31.8 C7.11867248,31.8 0,24.6813275 0,15.9 C0,7.11867248 7.11867248,0 15.9,0 Z M41.1,0 C47.0472181,0 52.2318138,3.26517446 54.9589156,8.10065173 L46.1667505,8.10011138 C44.7090894,7.1512852 42.9689245,6.6 41.1,6.6 C38.0524928,6.6 35.3473474,8.0658257 33.6511526,10.3308886 C32.9421039,8.06579902 31.8103334,5.98667028 30.3487619,4.1860835 C33.1789039,1.58673984 36.9541505,0 41.1,0 Z" id="形状结合"></path>
            </g>
            <g id="编组" transform="translate(64.578160, 0.000000)">
                <path d="M39.6453803,27.9052842 L39.6453803,24.5884251 C39.5664075,25.4571263 38.9083005,26.2731789 37.6710594,27.036583 C36.4338183,27.7999871 35.0254694,28.1816891 33.4460126,28.1816891 C32.3140686,28.1816891 31.1952868,27.9579328 30.0896671,27.51042 C28.9840474,27.0629073 27.9508194,26.4245435 26.9899832,25.5953287 C26.029147,24.7661139 25.2525808,23.6604942 24.6602845,22.2784696 C24.0679883,20.8964449 23.7718401,19.3498935 23.7718401,17.6388154 C23.7718401,15.9540616 24.0679883,14.4206723 24.6602845,13.0386477 C25.2525808,11.656623 26.029147,10.5510033 26.9899832,9.7217885 C27.9508194,8.89257371 28.9840474,8.25420995 30.0896671,7.80669721 C31.1952868,7.35918446 32.3140686,7.13542809 33.4460126,7.13542809 C36.3153591,7.13542809 38.381815,8.09626428 39.6453803,10.0179366 L39.6453803,7.3723466 L43.9888864,7.3723466 L43.9888864,27.9052842 L39.6453803,27.9052842 Z M33.9988225,24.4304794 C35.6046035,24.4304794 36.9800471,23.8579263 38.1251532,22.7128202 C39.2702594,21.567714 39.8428124,19.8763791 39.8428124,17.6388154 C39.8428124,15.3749274 39.2702594,13.6835925 38.1251532,12.5648106 C36.9800471,11.4460288 35.6046035,10.8866378 33.9988225,10.8866378 C32.4720143,10.8866378 31.1097329,11.4920963 29.9119782,12.7030131 C28.7142235,13.9139299 28.1153462,15.5591974 28.1153462,17.6388154 C28.1153462,19.7184334 28.7142235,21.370282 29.9119782,22.5943609 C31.1097329,23.8184399 32.4720143,24.4304794 33.9988225,24.4304794 Z M73.7221595,7.17491451 C76.2492903,7.17491451 78.3157462,7.93173753 79.9215272,9.44538357 C81.5273082,10.9590296 82.3301987,13.3874444 82.3301987,16.7306278 L82.3301987,27.9052842 L77.9472063,27.9052842 L77.9472063,16.6911414 C77.9472063,14.8221176 77.5260178,13.3874444 76.6836409,12.3871217 C75.841264,11.3867991 74.7751307,10.8866378 73.485241,10.8866378 C70.6685431,10.8866378 68.7337086,12.4924189 67.6807375,15.7039809 L67.7202239,16.7306278 L67.7202239,27.9052842 L63.3372314,27.9052842 L63.3372314,16.6911414 C63.3372314,14.8221176 62.9094619,13.3874444 62.0539228,12.3871217 C61.1983838,11.3867991 60.1125073,10.8866378 58.7962933,10.8866378 C55.9006226,10.8866378 54.0052745,12.7951481 53.110249,16.6121685 L53.110249,27.9052842 L48.7272566,27.9052842 L48.7272566,7.3723466 L53.110249,7.3723466 L53.110249,11.9922576 C53.110249,10.991935 53.6630589,9.9389638 54.7686786,8.83334409 C55.8742983,7.72772437 57.2958094,7.17491451 59.0332118,7.17491451 C63.0081779,7.17491451 65.6406058,8.78069553 66.9304955,11.9922576 C67.2200626,10.807665 67.9834667,9.70862636 69.2207078,8.69514162 C70.4579489,7.68165688 71.9584328,7.17491451 73.7221595,7.17491451 Z M91.4910478,7.3723466 L91.4910478,27.9052842 L87.0685689,27.9052842 L87.0685689,7.3723466 L91.4910478,7.3723466 Z M107.206642,7.17491451 C109.681125,7.17491451 111.714675,7.91857539 113.307294,9.40589715 C114.899913,10.8932189 115.696222,13.1505258 115.696222,16.1778179 L115.696222,27.9052842 L111.352716,27.9052842 L111.352716,16.4147364 C111.352716,12.7556617 109.812746,10.9261243 106.732805,10.9261243 C105.127024,10.9261243 103.777905,11.5381638 102.685447,12.7622427 C101.59299,13.9863217 100.954626,15.1380089 100.770356,16.2173043 L100.770356,27.9052842 L96.4268501,27.9052842 L96.4268501,7.3723466 L100.770356,7.3723466 L100.770356,11.7553391 C100.901978,10.807665 101.546922,9.80734241 102.705191,8.75437125 C103.863459,7.70140009 105.363943,7.17491451 107.206642,7.17491451 Z M139.467046,7.3723466 L139.467046,27.9052842 C139.467046,29.3531196 139.151155,30.623266 138.519372,31.7157236 C137.88759,32.8081812 137.071537,33.6505581 136.071214,34.2428544 C135.070892,34.8351507 134.044245,35.2760823 132.991274,35.5656494 C131.938302,35.8552165 130.911656,36 129.911333,36 C127.647445,36 125.620476,35.4603523 123.830425,34.3810568 L123.830425,30.5903607 C125.594151,31.6959804 127.621121,32.2487902 129.911333,32.2487902 C131.464465,32.2487902 132.72145,31.847345 133.682286,31.0444545 C134.643122,30.241564 135.12354,29.1951739 135.12354,27.9052842 L135.12354,24.5884251 C135.044567,25.4571263 134.38646,26.2731789 133.149219,27.036583 C131.911978,27.7999871 130.503629,28.1816891 128.924173,28.1816891 C127.792229,28.1816891 126.673447,27.9579328 125.567827,27.51042 C124.462207,27.0629073 123.428979,26.4245435 122.468143,25.5953287 C121.507307,24.7661139 120.730741,23.6604942 120.138444,22.2784696 C119.546148,20.8964449 119.25,19.3498935 119.25,17.6388154 C119.25,15.9540616 119.546148,14.4206723 120.138444,13.0386477 C120.730741,11.656623 121.507307,10.5510033 122.468143,9.7217885 C123.428979,8.89257371 124.462207,8.25420995 125.567827,7.80669721 C126.673447,7.35918446 127.792229,7.13542809 128.924173,7.13542809 C131.793519,7.13542809 133.859975,8.09626428 135.12354,10.0179366 L135.12354,7.3723466 L139.467046,7.3723466 Z M129.476982,24.4304794 C131.082763,24.4304794 132.458207,23.8579263 133.603313,22.7128202 C134.748419,21.567714 135.320972,19.8763791 135.320972,17.6388154 C135.320972,15.3749274 134.748419,13.6835925 133.603313,12.5648106 C132.458207,11.4460288 131.082763,10.8866378 129.476982,10.8866378 C127.950174,10.8866378 126.587893,11.4920963 125.390138,12.7030131 C124.192383,13.9139299 123.593506,15.5591974 123.593506,17.6388154 C123.593506,19.7184334 124.192383,21.370282 125.390138,22.5943609 C126.587893,23.8184399 127.950174,24.4304794 129.476982,24.4304794 Z M20.2170463,7.3723466 L20.2170463,27.9052842 C20.2170463,29.3531196 19.9011549,30.623266 19.2693722,31.7157236 C18.6375895,32.8081812 17.8215369,33.6505581 16.8212143,34.2428544 C15.8208917,34.8351507 14.7942448,35.2760823 13.7412736,35.5656494 C12.6883025,35.8552165 11.6616556,36 10.661333,36 C8.397445,36 6.37047551,35.4603523 4.58042454,34.3810568 L4.58042454,30.5903607 C6.34415124,31.6959804 8.37112072,32.2487902 10.661333,32.2487902 C12.2144654,32.2487902 13.4714498,31.847345 14.432286,31.0444545 C15.3931221,30.241564 15.8735402,29.1951739 15.8735402,27.9052842 L15.8735402,24.5884251 C15.7945674,25.4571263 15.1364604,26.2731789 13.8992193,27.036583 C12.6619782,27.7999871 11.2536293,28.1816891 9.67417253,28.1816891 C8.54222853,28.1816891 7.42344667,27.9579328 6.31782696,27.51042 C5.21220724,27.0629073 4.17897929,26.4245435 3.21814311,25.5953287 C2.25730692,24.7661139 1.48074069,23.6604942 0.888444416,22.2784696 C0.296148139,20.8964449 0,19.3498935 0,17.6388154 C0,15.9540616 0.296148139,14.4206723 0.888444416,13.0386477 C1.48074069,11.656623 2.25730692,10.5510033 3.21814311,9.7217885 C4.17897929,8.89257371 5.21220724,8.25420995 6.31782696,7.80669721 C7.42344667,7.35918446 8.54222853,7.13542809 9.67417253,7.13542809 C12.5435189,7.13542809 14.6099748,8.09626428 15.8735402,10.0179366 L15.8735402,7.3723466 L20.2170463,7.3723466 Z M10.2269824,24.4304794 C11.8327634,24.4304794 13.208207,23.8579263 14.3533131,22.7128202 C15.4984193,21.567714 16.0709723,19.8763791 16.0709723,17.6388154 C16.0709723,15.3749274 15.4984193,13.6835925 14.3533131,12.5648106 C13.208207,11.4460288 11.8327634,10.8866378 10.2269824,10.8866378 C8.7001742,10.8866378 7.33789277,11.4920963 6.14013807,12.7030131 C4.94238338,13.9139299 4.34350603,15.5591974 4.34350603,17.6388154 C4.34350603,19.7184334 4.94238338,21.370282 6.14013807,22.5943609 C7.33789277,23.8184399 8.7001742,24.4304794 10.2269824,24.4304794 Z" id="形状结合" fill="#FFFFFF" fill-rule="nonzero"></path>
                <polygon id="路径" fill="url(#linearGradient-2)" points="91.4910478 0 91.4910478 3.94864185 87.0685689 3.94864185 87.0685689 0"></polygon>
            </g>
        </g>
    </g>
</svg>