<?xml version="1.0" encoding="UTF-8"?>
<svg width="665px" height="238px" viewBox="0 0 665 238" version="1.1" xmlns="http://www.w3.org/2000/svg" xmlns:xlink="http://www.w3.org/1999/xlink">
    <title>绿</title>
    <g id="页面-1" stroke="none" stroke-width="1" fill="none" fill-rule="evenodd">
        <g id="绿" transform="translate(0.014537, 0.000000)" fill="#00CB61" fill-rule="nonzero">
            <path d="M284.985463,62 C298.128321,62 308.699749,65.4571429 316.699749,72.3714286 C324.699749,79.2857143 328.699749,88.0571429 328.699749,98.6857143 C328.699749,109.542857 324.728321,118.371429 316.785463,125.171429 C308.842606,131.971429 298.242606,135.371429 284.985463,135.371429 L262.356892,135.371429 L262.356892,182 L242.985463,182 L242.985463,62 L284.985463,62 Z M368.642606,62 L368.642606,165.714286 L427.785463,165.714286 L427.785463,182 L349.271177,182 L349.271177,62 L368.642606,62 Z M501.671177,62 L558.414035,182 L537.49975,182 L522.585464,148.4 L477.328321,148.4 L462.414034,182 L441.49975,182 L498.242607,62 L501.671177,62 Z M577.271178,62 L610.356892,109.828571 L643.442607,62 L664.871178,62 L619.785464,126.628571 L619.785464,182 L600.928321,182 L600.928321,126.628571 L555.842607,62 L577.271178,62 Z M499.956892,97.1428571 L484.528321,131.942857 L515.385464,131.942857 L499.956892,97.1428571 Z M284.128321,78.6285714 L262.356892,78.6285714 L262.356892,118.742857 L284.128321,118.742857 C301.271178,118.742857 309.842606,112.057143 309.842606,98.6857143 C309.842606,91.9428571 307.556892,86.9142857 302.985463,83.6 C298.414035,80.2857143 292.128321,78.6285714 284.128321,78.6285714 Z" id="形状结合"></path>
            <path d="M129.985463,0 C151.524568,0 168.985463,17.4608948 168.985463,39 C168.985463,48.2933812 165.734899,56.8275525 160.308705,63.5275808 C174.018231,73.10628 182.985463,89.005935 182.985463,107 C182.985463,136.271092 159.256555,160 129.985463,160 C107.034199,160 86.9082395,145.279305 79.7256605,123.856228 C79.6695255,123.688797 79.6172895,123.520998 79.5689055,123.35293 C74.9960165,112.927006 64.6457665,106 53,106 C36.9837422,106 24,118.983742 24,135 C24,151.016258 36.9837422,164 53,164 C60.2841325,164 67.1185285,161.318761 72.4089605,156.547949 L72.7672665,156.219435 C77.6151555,151.700516 85.2084535,151.967198 89.7273725,156.815087 C92.6857175,159.988794 93.5930655,164.339121 92.5067635,168.233201 C91.9963985,170.08362 91.0352105,171.834657 89.6238705,173.312965 L89.3925515,173.548791 L27.952576,234.517861 C23.2482913,239.18609 15.6503677,239.156861 10.9821389,234.452576 C6.3917138,229.826696 6.3434696,222.402828 10.8161056,217.717965 L11.0474239,217.482139 L41.9261619,186.841357 C17.9708838,181.749222 -1.42108547e-14,160.473274 -1.42108547e-14,135 C-1.42108547e-14,105.728908 23.7289082,82 53,82 C75.0315475,82 94.5258395,95.569143 102.394957,115.756686 C102.608299,116.303994 102.778734,116.857446 102.907893,117.413329 C107.161873,128.481905 117.854405,136 129.985463,136 C146.001721,136 158.985463,123.016258 158.985463,107 C158.985463,90.983742 146.001721,78 129.985463,78 C122.677333,78 115.822007,80.699111 110.525266,85.498354 L110.166552,85.828822 C105.329596,90.359442 97.7356765,90.111108 93.2050565,85.274153 C88.6744365,80.437198 88.9227695,72.843277 93.7597255,68.3126572 C95.6198565,66.5703323 97.5928355,64.9718141 99.6625525,63.5256578 C94.2357025,56.8267 90.9854635,48.292917 90.9854635,39 C90.9854635,17.4608948 108.446358,0 129.985463,0 Z M129.985463,24 C121.701193,24 114.985463,30.7157288 114.985463,39 C114.985463,47.2842712 121.701193,54 129.985463,54 C138.269734,54 144.985463,47.2842712 144.985463,39 C144.985463,30.7157288 138.269734,24 129.985463,24 Z" id="形状结合"></path>
        </g>
    </g>
</svg>