<?xml version="1.0" encoding="UTF-8"?>
<svg width="760px" height="300px" viewBox="0 0 760 300" version="1.1" xmlns="http://www.w3.org/2000/svg" xmlns:xlink="http://www.w3.org/1999/xlink">
    <title>98-1备份 5</title>
    <g id="98-1备份-5" stroke="none" stroke-width="1" fill="none" fill-rule="evenodd">
        <path d="M293,90 L335,90 C348.142857,90 358.714286,93.4571429 366.714286,100.371429 C374.714286,107.285714 378.714286,116.057143 378.714286,126.685714 C378.714286,137.542857 374.742857,146.371429 366.8,153.171429 C358.857143,159.971429 348.257143,163.371429 335,163.371429 L312.371429,163.371429 L312.371429,210 L293,210 L293,90 Z M312.371429,146.742857 L334.142857,146.742857 C351.285714,146.742857 359.857143,140.057143 359.857143,126.685714 C359.857143,119.942857 357.571429,114.914286 353,111.6 C348.428571,108.285714 342.142857,106.628571 334.142857,106.628571 L312.371429,106.628571 L312.371429,146.742857 Z M477.8,193.714286 L477.8,210 L399.285714,210 L399.285714,90 L418.657143,90 L418.657143,193.714286 L477.8,193.714286 Z M551.685714,90 L608.428571,210 L587.514286,210 L572.6,176.4 L527.342857,176.4 L512.428571,210 L491.514286,210 L548.257143,90 L551.685714,90 Z M627.285714,90 L660.371429,137.828571 L693.457143,90 L714.885714,90 L669.8,154.628571 L669.8,210 L650.942857,210 L650.942857,154.628571 L605.857143,90 L627.285714,90 Z M549.971429,125.142857 L534.542857,159.942857 L565.4,159.942857 L549.971429,125.142857 Z" id="形状结合" fill="#FFFFFF" fill-rule="nonzero"></path>
        <path d="M180,28 C201.539105,28 219,45.4608948 219,67 C219,76.2933812 215.749436,84.8275525 210.323242,91.5275808 C224.032767,101.10628 233,117.005935 233,135 C233,164.271092 209.271092,188 180,188 C157.048736,188 136.922776,173.279305 129.740197,151.856228 C129.684062,151.688797 129.631826,151.520998 129.583442,151.35293 C125.010553,140.927006 114.660303,134 103.014536,134 C86.9982787,134 74.0145365,146.983742 74.0145365,163 C74.0145365,179.016258 86.9982787,192 103.014536,192 C110.298669,192 117.133065,189.318761 122.423497,184.547949 L122.781803,184.219435 C127.629692,179.700516 135.22299,179.967198 139.741909,184.815087 C142.700254,187.988794 143.607602,192.339121 142.5213,196.233201 C142.010935,198.08362 141.049747,199.834657 139.638407,201.312965 L139.407088,201.548791 L77.9671125,262.517861 C73.2628278,267.18609 65.6649042,267.156861 60.9966754,262.452576 C56.4062503,257.826696 56.3580061,250.402828 60.8306421,245.717965 L61.0619604,245.482139 L91.9406984,214.841357 C67.9854203,209.749222 50.0145365,188.473274 50.0145365,163 C50.0145365,133.728908 73.7434447,110 103.014536,110 C125.046084,110 144.540376,123.569143 152.409494,143.756686 C152.622835,144.303994 152.79327,144.857446 152.92243,145.413329 C157.17641,156.481905 167.868942,164 180,164 C196.016258,164 209,151.016258 209,135 C209,118.983742 196.016258,106 180,106 C172.69187,106 165.836543,108.699111 160.539802,113.498354 L160.181089,113.828822 C155.344133,118.359442 147.750213,118.111108 143.219593,113.274153 C138.688973,108.437198 138.937306,100.843277 143.774262,96.3126572 C145.634393,94.5703323 147.607372,92.9718141 149.677089,91.5256578 C144.250239,84.8267 141,76.292917 141,67 C141,45.4608948 158.460895,28 180,28 Z M180,52 C171.715729,52 165,58.7157288 165,67 C165,75.2842712 171.715729,82 180,82 C188.284271,82 195,75.2842712 195,67 C195,58.7157288 188.284271,52 180,52 Z" id="形状结合" fill="#00CB61" fill-rule="nonzero"></path>
    </g>
</svg>