<?xml version="1.0" encoding="UTF-8"?>
<svg width="205px" height="36px" viewBox="0 0 205 36" version="1.1" xmlns="http://www.w3.org/2000/svg" xmlns:xlink="http://www.w3.org/1999/xlink">
    <title>og</title>
    <g id="页面-1" stroke="none" stroke-width="1" fill="none" fill-rule="evenodd">
        <g id="OG" transform="translate(-85.000000, -88.000000)">
            <g id="og" transform="translate(85.000000, 88.000000)">
                <g id="编组-23备份-2" transform="translate(0.000000, 2.100000)" fill="#2E69F6">
                    <path d="M15.9,0 C24.6813275,0 31.8,7.11867248 31.8,15.9 C31.8,19.5512051 30.5693031,22.9149655 28.5001059,25.5990845 C26.4305292,22.9145071 25.2,19.5509563 25.2,15.9 L25.2,15.9 L25.1961726,15.6305863 C25.0536041,10.6189368 20.9461386,6.6 15.9,6.6 C10.7637518,6.6 6.6,10.7637518 6.6,15.9 C6.6,21.0362482 10.7637518,25.2 15.9,25.2 C18.9475072,25.2 21.6526526,23.7341743 23.3488474,21.4691114 C24.0578961,23.734201 25.1896666,25.8133297 26.6512381,27.6139165 C23.8210961,30.2132602 20.0458495,31.8 15.9,31.8 C7.11867248,31.8 0,24.6813275 0,15.9 C0,7.11867248 7.11867248,0 15.9,0 Z" id="形状结合" fill-rule="nonzero"></path>
                    <rect id="矩形" x="41.1" y="12.6" width="14.7" height="6.6"></rect>
                    <path d="M28.4998941,6.20091549 C30.4898717,8.78223995 31.7041027,11.9913134 31.7945613,15.4800336 L31.8,15.9 L31.8038274,16.1694137 C31.9463959,21.1810632 36.0538614,25.2 41.1,25.2 C46.2362482,25.2 50.4,21.0362482 50.4,15.9 C50.4,14.7379614 50.1868752,13.6257008 49.7975817,12.6001741 L56.6572534,12.6007309 C56.8818631,13.6651187 57,14.7687632 57,15.9 C57,24.6813275 49.8813275,31.8 41.1,31.8 C32.3186725,31.8 25.2,24.6813275 25.2,15.9 C25.2,12.2487949 26.4306969,8.88503455 28.4998941,6.20091549 Z M41.1,0 C47.0472181,0 52.2318138,3.26517446 54.9589156,8.10065173 L46.1667505,8.10011138 C44.7090894,7.1512852 42.9689245,6.6 41.1,6.6 C38.0524928,6.6 35.3473474,8.0658257 33.6511526,10.3308886 C32.9421039,8.06579902 31.8103334,5.98667028 30.3487619,4.1860835 C33.1789039,1.58673984 36.9541505,0 41.1,0 Z" id="形状结合" fill-rule="nonzero"></path>
                </g>
                <g id="编组-2备份" transform="translate(64.578160, 0.000000)" fill-rule="nonzero">
                    <g id="编组">
                        <path d="M39.6453803,27.9052842 L39.6453803,24.5884251 C39.5664075,25.4571263 38.9083005,26.2731789 37.6710594,27.036583 C36.4338183,27.7999871 35.0254694,28.1816891 33.4460126,28.1816891 C32.3140686,28.1816891 31.1952868,27.9579328 30.0896671,27.51042 C28.9840474,27.0629073 27.9508194,26.4245435 26.9899832,25.5953287 C26.029147,24.7661139 25.2525808,23.6604942 24.6602845,22.2784696 C24.0679883,20.8964449 23.7718401,19.3498935 23.7718401,17.6388154 C23.7718401,15.9540616 24.0679883,14.4206723 24.6602845,13.0386477 C25.2525808,11.656623 26.029147,10.5510033 26.9899832,9.7217885 C27.9508194,8.89257371 28.9840474,8.25420995 30.0896671,7.80669721 C31.1952868,7.35918446 32.3140686,7.13542809 33.4460126,7.13542809 C36.3153591,7.13542809 38.381815,8.09626428 39.6453803,10.0179366 L39.6453803,7.3723466 L43.9888864,7.3723466 L43.9888864,27.9052842 L39.6453803,27.9052842 Z M33.9988225,24.4304794 C35.6046035,24.4304794 36.9800471,23.8579263 38.1251532,22.7128202 C39.2702594,21.567714 39.8428124,19.8763791 39.8428124,17.6388154 C39.8428124,15.3749274 39.2702594,13.6835925 38.1251532,12.5648106 C36.9800471,11.4460288 35.6046035,10.8866378 33.9988225,10.8866378 C32.4720143,10.8866378 31.1097329,11.4920963 29.9119782,12.7030131 C28.7142235,13.9139299 28.1153462,15.5591974 28.1153462,17.6388154 C28.1153462,19.7184334 28.7142235,21.370282 29.9119782,22.5943609 C31.1097329,23.8184399 32.4720143,24.4304794 33.9988225,24.4304794 Z" id="形状" fill="#FEFFFE"></path>
                        <path d="M73.7221595,7.17491451 C76.2492903,7.17491451 78.3157462,7.93173753 79.9215272,9.44538357 C81.5273082,10.9590296 82.3301987,13.3874444 82.3301987,16.7306278 L82.3301987,27.9052842 L77.9472063,27.9052842 L77.9472063,16.6911414 C77.9472063,14.8221176 77.5260178,13.3874444 76.6836409,12.3871217 C75.841264,11.3867991 74.7751307,10.8866378 73.485241,10.8866378 C70.6685431,10.8866378 68.7337086,12.4924189 67.6807375,15.7039809 L67.7202239,16.7306278 L67.7202239,27.9052842 L63.3372314,27.9052842 L63.3372314,16.6911414 C63.3372314,14.8221176 62.9094619,13.3874444 62.0539228,12.3871217 C61.1983838,11.3867991 60.1125073,10.8866378 58.7962933,10.8866378 C55.9006226,10.8866378 54.0052745,12.7951481 53.110249,16.6121685 L53.110249,27.9052842 L48.7272566,27.9052842 L48.7272566,7.3723466 L53.110249,7.3723466 L53.110249,11.9922576 C53.110249,10.991935 53.6630589,9.9389638 54.7686786,8.83334409 C55.8742983,7.72772437 57.2958094,7.17491451 59.0332118,7.17491451 C63.0081779,7.17491451 65.6406058,8.78069553 66.9304955,11.9922576 C67.2200626,10.807665 67.9834667,9.70862636 69.2207078,8.69514162 C70.4579489,7.68165688 71.9584328,7.17491451 73.7221595,7.17491451 Z" id="路径" fill="#FEFFFE"></path>
                        <polygon id="路径" fill="#FEFFFE" points="91.4910478 7.3723466 91.4910478 27.9052842 87.0685689 27.9052842 87.0685689 7.3723466"></polygon>
                        <path d="M107.206642,7.17491451 C109.681125,7.17491451 111.714675,7.91857539 113.307294,9.40589715 C114.899913,10.8932189 115.696222,13.1505258 115.696222,16.1778179 L115.696222,27.9052842 L111.352716,27.9052842 L111.352716,16.4147364 C111.352716,12.7556617 109.812746,10.9261243 106.732805,10.9261243 C105.127024,10.9261243 103.777905,11.5381638 102.685447,12.7622427 C101.59299,13.9863217 100.954626,15.1380089 100.770356,16.2173043 L100.770356,27.9052842 L96.4268501,27.9052842 L96.4268501,7.3723466 L100.770356,7.3723466 L100.770356,11.7553391 C100.901978,10.807665 101.546922,9.80734241 102.705191,8.75437125 C103.863459,7.70140009 105.363943,7.17491451 107.206642,7.17491451 Z" id="路径" fill="#FEFFFE"></path>
                        <path d="M139.467046,7.3723466 L139.467046,27.9052842 C139.467046,29.3531196 139.151155,30.623266 138.519372,31.7157236 C137.88759,32.8081812 137.071537,33.6505581 136.071214,34.2428544 C135.070892,34.8351507 134.044245,35.2760823 132.991274,35.5656494 C131.938302,35.8552165 130.911656,36 129.911333,36 C127.647445,36 125.620476,35.4603523 123.830425,34.3810568 L123.830425,30.5903607 C125.594151,31.6959804 127.621121,32.2487902 129.911333,32.2487902 C131.464465,32.2487902 132.72145,31.847345 133.682286,31.0444545 C134.643122,30.241564 135.12354,29.1951739 135.12354,27.9052842 L135.12354,24.5884251 C135.044567,25.4571263 134.38646,26.2731789 133.149219,27.036583 C131.911978,27.7999871 130.503629,28.1816891 128.924173,28.1816891 C127.792229,28.1816891 126.673447,27.9579328 125.567827,27.51042 C124.462207,27.0629073 123.428979,26.4245435 122.468143,25.5953287 C121.507307,24.7661139 120.730741,23.6604942 120.138444,22.2784696 C119.546148,20.8964449 119.25,19.3498935 119.25,17.6388154 C119.25,15.9540616 119.546148,14.4206723 120.138444,13.0386477 C120.730741,11.656623 121.507307,10.5510033 122.468143,9.7217885 C123.428979,8.89257371 124.462207,8.25420995 125.567827,7.80669721 C126.673447,7.35918446 127.792229,7.13542809 128.924173,7.13542809 C131.793519,7.13542809 133.859975,8.09626428 135.12354,10.0179366 L135.12354,7.3723466 L139.467046,7.3723466 Z M129.476982,24.4304794 C131.082763,24.4304794 132.458207,23.8579263 133.603313,22.7128202 C134.748419,21.567714 135.320972,19.8763791 135.320972,17.6388154 C135.320972,15.3749274 134.748419,13.6835925 133.603313,12.5648106 C132.458207,11.4460288 131.082763,10.8866378 129.476982,10.8866378 C127.950174,10.8866378 126.587893,11.4920963 125.390138,12.7030131 C124.192383,13.9139299 123.593506,15.5591974 123.593506,17.6388154 C123.593506,19.7184334 124.192383,21.370282 125.390138,22.5943609 C126.587893,23.8184399 127.950174,24.4304794 129.476982,24.4304794 Z" id="形状" fill="#FEFFFE"></path>
                        <path d="M20.2170463,7.3723466 L20.2170463,27.9052842 C20.2170463,29.3531196 19.9011549,30.623266 19.2693722,31.7157236 C18.6375895,32.8081812 17.8215369,33.6505581 16.8212143,34.2428544 C15.8208917,34.8351507 14.7942448,35.2760823 13.7412736,35.5656494 C12.6883025,35.8552165 11.6616556,36 10.661333,36 C8.397445,36 6.37047551,35.4603523 4.58042454,34.3810568 L4.58042454,30.5903607 C6.34415124,31.6959804 8.37112072,32.2487902 10.661333,32.2487902 C12.2144654,32.2487902 13.4714498,31.847345 14.432286,31.0444545 C15.3931221,30.241564 15.8735402,29.1951739 15.8735402,27.9052842 L15.8735402,24.5884251 C15.7945674,25.4571263 15.1364604,26.2731789 13.8992193,27.036583 C12.6619782,27.7999871 11.2536293,28.1816891 9.67417253,28.1816891 C8.54222853,28.1816891 7.42344667,27.9579328 6.31782696,27.51042 C5.21220724,27.0629073 4.17897929,26.4245435 3.21814311,25.5953287 C2.25730692,24.7661139 1.48074069,23.6604942 0.888444416,22.2784696 C0.296148139,20.8964449 0,19.3498935 0,17.6388154 C0,15.9540616 0.296148139,14.4206723 0.888444416,13.0386477 C1.48074069,11.656623 2.25730692,10.5510033 3.21814311,9.7217885 C4.17897929,8.89257371 5.21220724,8.25420995 6.31782696,7.80669721 C7.42344667,7.35918446 8.54222853,7.13542809 9.67417253,7.13542809 C12.5435189,7.13542809 14.6099748,8.09626428 15.8735402,10.0179366 L15.8735402,7.3723466 L20.2170463,7.3723466 Z M10.2269824,24.4304794 C11.8327634,24.4304794 13.208207,23.8579263 14.3533131,22.7128202 C15.4984193,21.567714 16.0709723,19.8763791 16.0709723,17.6388154 C16.0709723,15.3749274 15.4984193,13.6835925 14.3533131,12.5648106 C13.208207,11.4460288 11.8327634,10.8866378 10.2269824,10.8866378 C8.7001742,10.8866378 7.33789277,11.4920963 6.14013807,12.7030131 C4.94238338,13.9139299 4.34350603,15.5591974 4.34350603,17.6388154 C4.34350603,19.7184334 4.94238338,21.370282 6.14013807,22.5943609 C7.33789277,23.8184399 8.7001742,24.4304794 10.2269824,24.4304794 Z" id="形状" fill="#FEFFFE"></path>
                        <polygon id="路径" fill="#2E69F6" points="91.4910478 0 91.4910478 3.94864185 87.0685689 3.94864185 87.0685689 0"></polygon>
                    </g>
                </g>
            </g>
        </g>
    </g>
</svg>