<?xml version="1.0" encoding="UTF-8"?>
<svg width="24px" height="24px" viewBox="0 0 24 24" version="1.1" xmlns="http://www.w3.org/2000/svg" xmlns:xlink="http://www.w3.org/1999/xlink">
    <title>彩票</title>
    <g id="页面-1" stroke="none" stroke-width="1" fill="none" fill-rule="evenodd">
        <g id="PC" transform="translate(-1400.000000, -2409.000000)" fill="#FFFFFF">
            <path d="M1412,2409 C1418.62742,2409 1424,2414.37258 1424,2421 C1424,2427.62742 1418.62742,2433 1412,2433 C1405.37258,2433 1400,2427.62742 1400,2421 C1400,2414.37258 1405.37258,2409 1412,2409 Z M1409.81818,2415.54545 C1405.60073,2415.54545 1402.18182,2418.96437 1402.18182,2423.18182 C1402.18182,2427.39927 1405.60073,2430.81818 1409.81818,2430.81818 C1414.03563,2430.81818 1417.45455,2427.39927 1417.45455,2423.18182 C1417.45455,2418.96437 1414.03563,2415.54545 1409.81818,2415.54545 Z M1409.43383,2418.46613 C1409.80038,2418.46613 1410.14729,2418.52067 1410.47456,2418.62976 C1410.80183,2418.73885 1411.08983,2418.89376 1411.33856,2419.09449 C1411.58729,2419.29522 1411.78365,2419.5374 1411.92765,2419.82104 C1412.07165,2420.10467 1412.14365,2420.42104 1412.14365,2420.77013 C1412.14365,2421.09304 1412.10001,2421.37885 1412.01274,2421.62758 C1411.92547,2421.87631 1411.8142,2422.08795 1411.67892,2422.26249 C1411.54365,2422.43704 1411.38874,2422.58104 1411.2142,2422.69449 C1411.03965,2422.80795 1410.86511,2422.88649 1410.69056,2422.93013 L1410.69056,2422.9694 C1410.94365,2423.03922 1411.17711,2423.14176 1411.39092,2423.27704 C1411.60474,2423.41231 1411.7902,2423.57813 1411.94729,2423.77449 C1412.10438,2423.97085 1412.22874,2424.19122 1412.32038,2424.43558 C1412.41201,2424.67995 1412.45783,2424.94613 1412.45783,2425.23413 C1412.45783,2425.67049 1412.37929,2426.06322 1412.2222,2426.41231 C1412.06511,2426.7614 1411.85129,2427.05813 1411.58074,2427.30249 C1411.3102,2427.54685 1410.98947,2427.73231 1410.61856,2427.85885 C1410.24765,2427.9854 1409.85274,2428.04867 1409.43383,2428.04867 C1409.01492,2428.04867 1408.62001,2427.9854 1408.24911,2427.85885 C1407.8782,2427.73231 1407.55747,2427.54685 1407.28692,2427.30249 C1407.01638,2427.05813 1406.80256,2426.7614 1406.64547,2426.41231 C1406.48838,2426.06322 1406.40983,2425.67049 1406.40983,2425.23413 C1406.40983,2424.94613 1406.45565,2424.67995 1406.54729,2424.43558 C1406.63892,2424.19122 1406.76329,2423.97085 1406.92038,2423.77449 C1407.07747,2423.57813 1407.26292,2423.41231 1407.47674,2423.27704 C1407.69056,2423.14176 1407.92401,2423.03922 1408.17711,2422.9694 L1408.17711,2422.93013 C1408.00256,2422.88649 1407.82801,2422.80795 1407.65347,2422.69449 C1407.47892,2422.58104 1407.32401,2422.43704 1407.18874,2422.26249 C1407.05347,2422.08795 1406.9422,2421.87631 1406.85492,2421.62758 C1406.76765,2421.37885 1406.72401,2421.09304 1406.72401,2420.77013 C1406.72401,2420.42104 1406.79601,2420.10467 1406.94001,2419.82104 C1407.08401,2419.5374 1407.28038,2419.29522 1407.52911,2419.09449 C1407.77783,2418.89376 1408.06583,2418.73885 1408.39311,2418.62976 C1408.72038,2418.52067 1409.06729,2418.46613 1409.43383,2418.46613 Z M1409.43383,2423.51922 C1408.91892,2423.52795 1408.49565,2423.69158 1408.16401,2424.01013 C1407.83238,2424.32867 1407.66656,2424.73667 1407.66656,2425.23413 C1407.66656,2425.50467 1407.71456,2425.74685 1407.81056,2425.96067 C1407.90656,2426.17449 1408.03529,2426.3534 1408.19674,2426.4974 C1408.3582,2426.6414 1408.54583,2426.75267 1408.75965,2426.83122 C1408.97347,2426.90976 1409.1982,2426.94904 1409.43383,2426.94904 C1409.95747,2426.94904 1410.38292,2426.78976 1410.7102,2426.47122 C1411.03747,2426.15267 1411.20111,2425.74031 1411.20111,2425.23413 C1411.20111,2424.95485 1411.15529,2424.70831 1411.06365,2424.49449 C1410.97201,2424.28067 1410.84547,2424.10176 1410.68401,2423.95776 C1410.52256,2423.81376 1410.33492,2423.70467 1410.12111,2423.63049 C1409.90729,2423.55631 1409.6782,2423.51922 1409.43383,2423.51922 Z M1409.43383,2419.48722 C1409.03238,2419.48722 1408.68983,2419.62249 1408.4062,2419.89304 C1408.12256,2420.16358 1407.98074,2420.51704 1407.98074,2420.9534 C1407.98074,2421.13667 1408.01347,2421.31558 1408.07892,2421.49013 C1408.14438,2421.66467 1408.2382,2421.81958 1408.36038,2421.95485 C1408.48256,2422.09013 1408.63311,2422.2014 1408.81201,2422.28867 C1408.99092,2422.37595 1409.1982,2422.41958 1409.43383,2422.41958 C1409.6782,2422.41958 1409.88983,2422.37813 1410.06874,2422.29522 C1410.24765,2422.21231 1410.3982,2422.10322 1410.52038,2421.96795 C1410.64256,2421.83267 1410.7342,2421.67776 1410.79529,2421.50322 C1410.85638,2421.32867 1410.88692,2421.1454 1410.88692,2420.9534 C1410.88692,2420.52576 1410.75383,2420.17449 1410.48765,2419.89958 C1410.22147,2419.62467 1409.8702,2419.48722 1409.43383,2419.48722 Z M1416.23129,2411.68851 C1415.37923,2412.54056 1415.89728,2414.44006 1417.38837,2415.93115 C1418.87946,2417.42224 1420.77896,2417.94029 1421.63101,2417.08823 C1422.48306,2416.23618 1421.96502,2414.33669 1420.47393,2412.84559 C1418.98283,2411.3545 1417.08334,2410.83646 1416.23129,2411.68851 Z" id="彩票"></path>
        </g>
    </g>
</svg>