<?xml version="1.0" encoding="UTF-8"?>
<svg width="16px" height="16px" viewBox="0 0 16 16" version="1.1" xmlns="http://www.w3.org/2000/svg" xmlns:xlink="http://www.w3.org/1999/xlink">
    <title>refresh</title>
    <g id="页面-1" stroke="none" stroke-width="1" fill="none" fill-rule="evenodd">
        <path d="M0.290909091,6.37576779 C0.290909091,6.3037302 0.290909091,6.3037302 0.363636364,6.23169261 C1.23636364,2.05351241 5.6,-0.75595358 9.81818182,0.180535085 C13.3090909,0.97294857 15.7818182,3.92648974 16,7.31225645 L16,7.45633163 C16,7.74448199 15.7818182,7.88855717 15.5636364,7.96059476 L15.4181818,7.96059476 L12.3636364,6.51984297 C12.2909091,6.44780538 12.2181818,6.37576779 12.2181818,6.23169261 C12.2181818,6.08761743 12.2909091,6.01557984 12.3636364,5.94354225 L12.5090909,5.94354225 L13.7454545,5.79946707 C13.0181818,3.99852733 11.4909091,2.48573795 9.38181818,2.05351241 C6.03636364,1.26109893 2.69090909,3.42222662 1.89090909,6.66391815 C1.89090909,6.80799333 1.74545455,6.9520685 1.6,6.9520685 L1.52727273,6.9520685 C1.09090909,6.80799333 0.945454545,6.88003092 0.581818182,6.66391815 C0.436363636,6.66391815 0.290909091,6.51984297 0.290909091,6.37576779 Z M0.581818182,7.96059476 L1.6,8.53689548 L1.89090909,8.68097065 L3.70909091,9.68949691 L3.78181818,9.7615345 C3.78181818,9.83357209 3.85454545,9.90560968 3.85454545,9.97764727 C3.85454545,10.0496849 3.78181818,10.19376 3.70909091,10.2657976 L3.63636364,10.2657976 L2.4,10.4098728 L2.32727273,10.4098728 C3.05454545,12.138775 4.58181818,13.4354516 6.54545455,13.9397147 C9.81818182,14.7321282 13.2363636,12.6430381 13.9636364,9.40134655 C13.9636364,9.32930896 14.0363636,9.25727137 14.0363636,9.18523378 C14.0363636,9.0411586 14.1818182,8.96912101 14.3272727,8.96912101 L14.4,8.96912101 C14.7636364,9.11319619 15.3454545,9.18523378 15.6363636,9.32930896 C15.7090909,9.40134655 15.7818182,9.47338414 15.7818182,9.61745932 L15.7818182,9.83357209 C14.7636364,14.0837899 10.4727273,16.7491807 6.18181818,15.812692 C2.69090909,15.0202785 0.290909091,12.0667374 0,8.68097065 L0,8.53689548 C0,8.17670753 0.218181818,7.96059476 0.436363636,7.96059476 L0.581818182,7.96059476 Z" id="refresh" fill="#FFFFFF"></path>
    </g>
</svg>